<svg xmlns="http://www.w3.org/2000/svg" xmlns:xlink="http://www.w3.org/1999/xlink" width="336" zoomAndPan="magnify" viewBox="0 0 252 128.249994" height="171" preserveAspectRatio="xMidYMid meet" version="1.2"><defs><clipPath id="906544e798"><path d="M 0.953125 0 L 42 0 L 42 42 L 0.953125 42 Z M 0.953125 0 "/></clipPath><clipPath id="d88bddda70"><path d="M 41 82 L 123.984375 82 L 123.984375 123.03125 L 41 123.03125 Z M 41 82 "/></clipPath><clipPath id="5e7c44bcfe"><path d="M 41 41 L 123.984375 41 L 123.984375 83 L 41 83 Z M 41 41 "/></clipPath><clipPath id="a67e11f8d1"><path d="M 0.953125 41 L 42 41 L 42 123.03125 L 0.953125 123.03125 Z M 0.953125 41 "/></clipPath><clipPath id="cf499bea1f"><path d="M 82 0 L 123.984375 0 L 123.984375 42 L 82 42 Z M 82 0 "/></clipPath><clipPath id="92f9d66b2d"><path d="M 123.996094 63 L 188 63 L 188 126.757812 L 123.996094 126.757812 Z M 123.996094 63 "/></clipPath><clipPath id="9919f28cf7"><path d="M 187 0 L 250.753906 0 L 250.753906 64 L 187 64 Z M 187 0 "/></clipPath><clipPath id="083867df09"><path d="M 187 63 L 250.753906 63 L 250.753906 126.757812 L 187 126.757812 Z M 187 63 "/></clipPath><clipPath id="aefd4bc715"><path d="M 123.996094 0 L 156 0 L 156 32 L 123.996094 32 Z M 123.996094 0 "/></clipPath><clipPath id="1f4e4f8c92"><path d="M 123.996094 31 L 156 31 L 156 64 L 123.996094 64 Z M 123.996094 31 "/></clipPath></defs><g id="a87fa83a83"><g clip-rule="nonzero" clip-path="url(#906544e798)"><path style=" stroke:none;fill-rule:evenodd;fill:#d62f5f;fill-opacity:1;" d="M 0.945312 0 L 0.945312 41.011719 C 23.59375 41.011719 41.957031 22.648438 41.957031 0 Z M 0.945312 0 "/></g><g clip-rule="nonzero" clip-path="url(#d88bddda70)"><path style=" stroke:none;fill-rule:evenodd;fill:#02abf3;fill-opacity:1;" d="M 123.984375 82.027344 C 123.984375 104.675781 105.621094 123.039062 82.972656 123.039062 C 60.320312 123.039062 41.957031 104.675781 41.957031 82.027344 C 64.609375 82.027344 82.972656 100.390625 82.972656 123.039062 C 82.972656 100.390625 101.335938 82.027344 123.984375 82.027344 Z M 123.984375 82.027344 "/></g><g clip-rule="nonzero" clip-path="url(#5e7c44bcfe)"><path style=" stroke:none;fill-rule:evenodd;fill:#0068d4;fill-opacity:1;" d="M 41.957031 82.027344 C 41.957031 59.375 60.320312 41.011719 82.972656 41.011719 C 105.621094 41.011719 123.984375 59.375 123.984375 82.027344 C 101.335938 82.027344 82.972656 63.664062 82.972656 41.011719 C 82.972656 63.664062 64.609375 82.027344 41.957031 82.027344 Z M 41.957031 82.027344 "/></g><path style=" stroke:none;fill-rule:evenodd;fill:#fcc800;fill-opacity:1;" d="M 82.972656 0 L 82.972656 41.011719 C 60.320312 41.011719 41.957031 22.648438 41.957031 0 Z M 82.972656 0 "/><g clip-rule="nonzero" clip-path="url(#a67e11f8d1)"><path style=" stroke:none;fill-rule:evenodd;fill:#159342;fill-opacity:1;" d="M 41.957031 82.027344 C 41.957031 104.675781 23.59375 123.039062 0.945312 123.039062 L 0.945312 102.441406 C 12.21875 102.441406 21.359375 93.300781 21.359375 82.027344 C 21.359375 70.75 12.21875 61.613281 0.945312 61.613281 L 0.945312 41.011719 C 23.59375 41.011719 41.957031 59.375 41.957031 82.027344 Z M 41.957031 82.027344 "/></g><path style=" stroke:none;fill-rule:evenodd;fill:#d62f5f;fill-opacity:1;" d="M 51.910156 41.011719 C 51.910156 46.511719 47.457031 50.964844 41.957031 50.964844 C 36.460938 50.964844 32.007812 46.511719 32.007812 41.011719 C 32.007812 35.515625 36.460938 31.0625 41.957031 31.0625 C 47.457031 31.0625 51.910156 35.515625 51.910156 41.011719 Z M 51.910156 41.011719 "/><path style=" stroke:none;fill-rule:evenodd;fill:#159342;fill-opacity:1;" d="M 92.921875 82.027344 C 92.921875 87.523438 88.46875 91.976562 82.972656 91.976562 C 77.472656 91.976562 73.019531 87.523438 73.019531 82.027344 C 73.019531 76.527344 77.472656 72.074219 82.972656 72.074219 C 88.46875 72.074219 92.921875 76.527344 92.921875 82.027344 Z M 92.921875 82.027344 "/><g clip-rule="nonzero" clip-path="url(#cf499bea1f)"><path style=" stroke:none;fill-rule:evenodd;fill:#159342;fill-opacity:1;" d="M 82.972656 11.964844 C 82.972656 13.675781 82.972656 15.382812 82.972656 17.09375 C 96.640625 17.09375 110.3125 17.09375 123.984375 17.09375 C 123.984375 15.382812 123.984375 13.675781 123.984375 11.964844 C 110.3125 11.964844 96.640625 11.964844 82.972656 11.964844 Z M 82.972656 0 L 82.972656 5.125 L 123.984375 5.125 L 123.984375 0 Z M 82.972656 35.902344 L 82.972656 41.027344 L 123.984375 41.027344 L 123.984375 35.902344 Z M 82.972656 23.933594 C 82.972656 25.644531 82.972656 27.355469 82.972656 29.0625 C 96.640625 29.0625 110.3125 29.0625 123.984375 29.0625 C 123.984375 27.355469 123.984375 25.644531 123.984375 23.933594 C 110.3125 23.933594 96.640625 23.933594 82.972656 23.933594 Z M 82.972656 23.933594 "/></g><g clip-rule="nonzero" clip-path="url(#92f9d66b2d)"><path style=" stroke:none;fill-rule:evenodd;fill:#0068d4;fill-opacity:1;" d="M 187.375 94.652344 C 170.171875 94.652344 156.097656 80.582031 156.097656 63.378906 L 123.996094 63.378906 C 123.996094 98.238281 152.515625 126.753906 187.375 126.753906 Z M 187.375 94.652344 "/></g><g clip-rule="nonzero" clip-path="url(#9919f28cf7)"><path style=" stroke:none;fill-rule:evenodd;fill:#fcc800;fill-opacity:1;" d="M 250.75 63.378906 C 250.75 28.519531 222.234375 0 187.375 0 L 187.375 32.105469 C 204.574219 32.105469 218.644531 46.179688 218.644531 63.378906 Z M 250.75 63.378906 "/></g><g clip-rule="nonzero" clip-path="url(#083867df09)"><path style=" stroke:none;fill-rule:evenodd;fill:#d62f5f;fill-opacity:1;" d="M 187.375 126.753906 L 187.375 94.652344 C 204.574219 94.652344 218.644531 80.582031 218.644531 63.378906 L 250.75 63.378906 C 250.75 98.238281 222.234375 126.753906 187.375 126.753906 Z M 187.375 126.753906 "/></g><g clip-rule="nonzero" clip-path="url(#aefd4bc715)"><path style=" stroke:none;fill-rule:evenodd;fill:#159342;fill-opacity:1;" d="M 155.683594 0 L 123.996094 0 L 123.996094 31.691406 C 141.496094 31.691406 155.683594 17.5 155.683594 0 Z M 155.683594 0 "/></g><path style=" stroke:none;fill-rule:evenodd;fill:#159342;fill-opacity:1;" d="M 187.375 43.472656 C 198.367188 43.472656 207.277344 52.382812 207.277344 63.378906 C 207.277344 74.371094 198.367188 83.28125 187.375 83.28125 C 176.378906 83.28125 167.46875 74.371094 167.46875 63.378906 C 167.46875 52.382812 176.378906 43.472656 187.375 43.472656 Z M 187.375 43.472656 "/><g clip-rule="nonzero" clip-path="url(#1f4e4f8c92)"><path style=" stroke:none;fill-rule:evenodd;fill:#02abf3;fill-opacity:1;" d="M 155.683594 31.691406 L 123.996094 31.691406 L 123.996094 63.378906 C 141.496094 63.378906 155.683594 49.191406 155.683594 31.691406 Z M 155.683594 31.691406 "/></g><path style=" stroke:none;fill-rule:evenodd;fill:#0068d4;fill-opacity:1;" d="M 187.375 0 L 155.683594 0 L 155.683594 31.691406 C 173.1875 31.691406 187.375 17.5 187.375 0 Z M 187.375 0 "/></g></svg>