<svg xmlns="http://www.w3.org/2000/svg" xmlns:xlink="http://www.w3.org/1999/xlink" width="331" zoomAndPan="magnify" viewBox="0 0 248.25 731.249983" height="975" preserveAspectRatio="xMidYMid meet" version="1.2"><defs><clipPath id="861cef9825"><path d="M 18.34375 684.0625 L 34.792969 684.0625 L 34.792969 700.515625 L 18.34375 700.515625 Z M 18.34375 684.0625 "/></clipPath><clipPath id="2b55232097"><path d="M 120.347656 85 L 163 85 L 163 127.84375 L 120.347656 127.84375 Z M 120.347656 85 "/></clipPath><clipPath id="ffd5d260d2"><path d="M 205 0.726562 L 247.464844 0.726562 L 247.464844 86 L 205 86 Z M 205 0.726562 "/></clipPath><clipPath id="ef383fa502"><path d="M 162 0.726562 L 206 0.726562 L 206 86 L 162 86 Z M 162 0.726562 "/></clipPath><clipPath id="29f7c33330"><path d="M 120.347656 43 L 163 43 L 163 86 L 120.347656 86 Z M 120.347656 43 "/></clipPath><clipPath id="d79b697907"><path d="M 162 85 L 247.464844 85 L 247.464844 127.84375 L 162 127.84375 Z M 162 85 "/></clipPath><clipPath id="c8cae254fd"><path d="M 120.347656 0.726562 L 163 0.726562 L 163 44 L 120.347656 44 Z M 120.347656 0.726562 "/></clipPath><clipPath id="51be3feae5"><path d="M 124.085938 254.976562 L 166 254.976562 L 166 297 L 124.085938 297 Z M 124.085938 254.976562 "/></clipPath><clipPath id="6e09be02e5"><path d="M 165 337 L 247.464844 337 L 247.464844 378.351562 L 165 378.351562 Z M 165 337 "/></clipPath><clipPath id="1cfe06360c"><path d="M 165 296 L 247.464844 296 L 247.464844 338 L 165 338 Z M 165 296 "/></clipPath><clipPath id="1879d91566"><path d="M 165 254.976562 L 207 254.976562 L 207 297 L 165 297 Z M 165 254.976562 "/></clipPath><clipPath id="2d19a009fb"><path d="M 124.085938 296 L 166 296 L 166 378.351562 L 124.085938 378.351562 Z M 124.085938 296 "/></clipPath><clipPath id="5b8e3f6471"><path d="M 206 254.976562 L 247.464844 254.976562 L 247.464844 297 L 206 297 Z M 206 254.976562 "/></clipPath><clipPath id="fe45f40fb8"><path d="M 0 482.125 L 41 482.125 L 41 523 L 0 523 Z M 0 482.125 "/></clipPath><clipPath id="675825bee2"><path d="M 40 562 L 120.339844 562 L 120.339844 602.464844 L 40 602.464844 Z M 40 562 "/></clipPath><clipPath id="319f217e53"><path d="M 40 522 L 120.339844 522 L 120.339844 563 L 40 563 Z M 40 522 "/></clipPath><clipPath id="dd6c8e6c9b"><path d="M 40 482.125 L 81 482.125 L 81 523 L 40 523 Z M 40 482.125 "/></clipPath><clipPath id="096c6ae17a"><path d="M 0 522 L 41 522 L 41 602.464844 L 0 602.464844 Z M 0 522 "/></clipPath><clipPath id="f40b061312"><path d="M 80 482.125 L 120.339844 482.125 L 120.339844 523 L 80 523 Z M 80 482.125 "/></clipPath><clipPath id="d9d8b41d62"><path d="M 120.347656 191 L 184 191 L 184 254.96875 L 120.347656 254.96875 Z M 120.347656 191 "/></clipPath><clipPath id="ace5436cd2"><path d="M 183 127.851562 L 247.464844 127.851562 L 247.464844 192 L 183 192 Z M 183 127.851562 "/></clipPath><clipPath id="94ddd802da"><path d="M 183 191 L 247.464844 191 L 247.464844 254.96875 L 183 254.96875 Z M 183 191 "/></clipPath><clipPath id="d3289185f9"><path d="M 120.347656 127.851562 L 153 127.851562 L 153 160 L 120.347656 160 Z M 120.347656 127.851562 "/></clipPath><clipPath id="8ec2a55f36"><path d="M 120.347656 159 L 153 159 L 153 192 L 120.347656 192 Z M 120.347656 159 "/></clipPath><clipPath id="184262e239"><path d="M 152 127.851562 L 184 127.851562 L 184 160 L 152 160 Z M 152 127.851562 "/></clipPath><clipPath id="01f32370dc"><path d="M 0.00390625 241 L 61 241 L 61 302 L 0.00390625 302 Z M 0.00390625 241 "/></clipPath><clipPath id="f986fb0c18"><path d="M 0.00390625 361 L 61 361 L 61 422 L 0.00390625 422 Z M 0.00390625 361 "/></clipPath><clipPath id="686128b980"><path d="M 0.00390625 421 L 61 421 L 61 482 L 0.00390625 482 Z M 0.00390625 421 "/></clipPath><clipPath id="043a301493"><path d="M 60 421 L 120.390625 421 L 120.390625 482 L 60 482 Z M 60 421 "/></clipPath><clipPath id="118ac5aec9"><path d="M 60 301 L 120.390625 301 L 120.390625 362 L 60 362 Z M 60 301 "/></clipPath><clipPath id="92186410f3"><path d="M 60 241 L 120.390625 241 L 120.390625 302 L 60 302 Z M 60 241 "/></clipPath><clipPath id="0584e9561c"><path d="M 60 181 L 120.390625 181 L 120.390625 242 L 60 242 Z M 60 181 "/></clipPath><clipPath id="27eaa89f45"><path d="M 60 121 L 120.390625 121 L 120.390625 182 L 60 182 Z M 60 121 "/></clipPath><clipPath id="eb8bcef17c"><path d="M 60 61 L 120.390625 61 L 120.390625 122 L 60 122 Z M 60 61 "/></clipPath><clipPath id="4ef7c1275c"><path d="M 60 1 L 120.390625 1 L 120.390625 62 L 60 62 Z M 60 1 "/></clipPath><clipPath id="9c8189b4c8"><path d="M 0.00390625 301 L 61 301 L 61 362 L 0.00390625 362 Z M 0.00390625 301 "/></clipPath><clipPath id="e518b00e26"><path d="M 0.00390625 181 L 61 181 L 61 242 L 0.00390625 242 Z M 0.00390625 181 "/></clipPath><clipPath id="dbf9cb19e6"><path d="M 0.00390625 121 L 61 121 L 61 182 L 0.00390625 182 Z M 0.00390625 121 "/></clipPath><clipPath id="c12a394a77"><path d="M 0.00390625 61 L 61 61 L 61 122 L 0.00390625 122 Z M 0.00390625 61 "/></clipPath><clipPath id="aab1f00b7d"><path d="M 0.00390625 1 L 61 1 L 61 62 L 0.00390625 62 Z M 0.00390625 1 "/></clipPath><clipPath id="5176a62c57"><path d="M 60 361 L 120.390625 361 L 120.390625 422 L 60 422 Z M 60 361 "/></clipPath><clipPath id="e4b88902ad"><path d="M 63 666 L 127.117188 666 L 127.117188 729.589844 L 63 729.589844 Z M 63 666 "/></clipPath><clipPath id="e9838f3f97"><path d="M 0 602.472656 L 64 602.472656 L 64 667 L 0 667 Z M 0 602.472656 "/></clipPath><clipPath id="2d93df14eb"><path d="M 0 666 L 64 666 L 64 729.589844 L 0 729.589844 Z M 0 666 "/></clipPath><clipPath id="7380f78581"><path d="M 95 602.472656 L 127.117188 602.472656 L 127.117188 635 L 95 635 Z M 95 602.472656 "/></clipPath><clipPath id="e149dbe8cf"><path d="M 95 634 L 127.117188 634 L 127.117188 667 L 95 667 Z M 95 634 "/></clipPath><clipPath id="2a52dfc014"><path d="M 63 602.472656 L 96 602.472656 L 96 635 L 63 635 Z M 63 602.472656 "/></clipPath></defs><g id="770f4cb0a4"><g clip-rule="nonzero" clip-path="url(#861cef9825)"><path style=" stroke:none;fill-rule:nonzero;fill:#404048;fill-opacity:1;" d="M 34.332031 694.996094 C 34.628906 694.144531 34.792969 693.242188 34.792969 692.296875 C 34.792969 691.347656 34.628906 690.433594 34.332031 689.59375 C 34.320312 689.570312 34.320312 689.546875 34.308594 689.523438 C 33.167969 686.347656 30.125 684.070312 26.566406 684.070312 C 23.011719 684.070312 19.964844 686.347656 18.828125 689.511719 C 18.816406 689.535156 18.804688 689.558594 18.804688 689.582031 C 18.507812 690.433594 18.34375 691.347656 18.34375 692.296875 C 18.34375 693.242188 18.507812 694.15625 18.804688 694.996094 C 18.816406 695.019531 18.816406 695.046875 18.828125 695.070312 C 19.964844 698.246094 23.011719 700.507812 26.566406 700.507812 C 30.125 700.507812 33.167969 698.234375 34.308594 695.070312 C 34.320312 695.046875 34.320312 695.019531 34.332031 694.996094 Z M 26.566406 699.335938 C 26.257812 699.335938 25.75 698.765625 25.324219 697.5 C 25.121094 696.882812 24.957031 696.183594 24.835938 695.425781 L 28.285156 695.425781 C 28.167969 696.183594 28 696.894531 27.800781 697.5 C 27.386719 698.765625 26.875 699.335938 26.566406 699.335938 Z M 24.695312 694.25 C 24.636719 693.621094 24.613281 692.972656 24.613281 692.296875 C 24.613281 691.621094 24.648438 690.96875 24.695312 690.339844 L 28.429688 690.339844 C 28.488281 690.96875 28.511719 691.621094 28.511719 692.296875 C 28.511719 692.972656 28.476562 693.621094 28.429688 694.25 Z M 19.515625 692.296875 C 19.515625 691.621094 19.609375 690.957031 19.789062 690.339844 L 23.511719 690.339844 C 23.449219 690.980469 23.425781 691.644531 23.425781 692.296875 C 23.425781 692.949219 23.449219 693.609375 23.511719 694.25 L 19.800781 694.25 C 19.621094 693.621094 19.515625 692.972656 19.515625 692.296875 Z M 26.566406 685.242188 C 26.875 685.242188 27.386719 685.8125 27.8125 687.082031 C 28.015625 687.695312 28.179688 688.394531 28.296875 689.15625 L 24.835938 689.15625 C 24.957031 688.382812 25.121094 687.683594 25.324219 687.082031 C 25.75 685.8125 26.246094 685.242188 26.566406 685.242188 Z M 29.613281 690.339844 L 33.335938 690.339844 C 33.511719 690.957031 33.609375 691.621094 33.609375 692.296875 C 33.609375 692.972656 33.511719 693.636719 33.335938 694.25 L 29.613281 694.25 C 29.671875 693.609375 29.695312 692.949219 29.695312 692.296875 C 29.695312 691.632812 29.671875 690.980469 29.613281 690.339844 Z M 32.871094 689.15625 L 29.484375 689.15625 C 29.269531 687.707031 28.914062 686.417969 28.40625 685.492188 C 30.359375 686.027344 31.984375 687.378906 32.871094 689.15625 Z M 24.71875 685.492188 C 24.210938 686.417969 23.855469 687.707031 23.640625 689.15625 L 20.261719 689.15625 C 21.152344 687.378906 22.761719 686.027344 24.71875 685.492188 Z M 20.261719 695.425781 L 23.652344 695.425781 C 23.867188 696.871094 24.222656 698.164062 24.730469 699.085938 C 22.761719 698.566406 21.152344 697.214844 20.261719 695.425781 Z M 28.40625 699.097656 C 28.914062 698.175781 29.269531 696.882812 29.484375 695.4375 L 32.871094 695.4375 C 31.984375 697.214844 30.359375 698.566406 28.40625 699.097656 Z M 28.40625 699.097656 "/></g><g clip-rule="nonzero" clip-path="url(#2b55232097)"><path style=" stroke:none;fill-rule:evenodd;fill:#d62f5f;fill-opacity:1;" d="M 120.347656 127.851562 L 162.722656 127.851562 C 162.722656 104.449219 143.75 85.476562 120.347656 85.476562 Z M 120.347656 127.851562 "/></g><g clip-rule="nonzero" clip-path="url(#ffd5d260d2)"><path style=" stroke:none;fill-rule:evenodd;fill:#0068d4;fill-opacity:1;" d="M 205.097656 0.726562 C 228.5 0.726562 247.472656 19.699219 247.472656 43.101562 C 247.472656 66.503906 228.5 85.476562 205.097656 85.476562 C 205.097656 62.074219 224.070312 43.101562 247.472656 43.101562 C 224.070312 43.101562 205.097656 24.128906 205.097656 0.726562 Z M 205.097656 0.726562 "/></g><g clip-rule="nonzero" clip-path="url(#ef383fa502)"><path style=" stroke:none;fill-rule:evenodd;fill:#fffcf7;fill-opacity:1;" d="M 205.097656 85.476562 C 181.695312 85.476562 162.722656 66.503906 162.722656 43.101562 C 162.722656 19.699219 181.695312 0.726562 205.097656 0.726562 C 205.097656 24.128906 186.125 43.101562 162.722656 43.101562 C 186.125 43.101562 205.097656 62.074219 205.097656 85.476562 Z M 205.097656 85.476562 "/></g><g clip-rule="nonzero" clip-path="url(#29f7c33330)"><path style=" stroke:none;fill-rule:evenodd;fill:#fcc800;fill-opacity:1;" d="M 120.347656 43.101562 L 162.722656 43.101562 C 162.722656 66.503906 143.75 85.476562 120.347656 85.476562 Z M 120.347656 43.101562 "/></g><g clip-rule="nonzero" clip-path="url(#d79b697907)"><path style=" stroke:none;fill-rule:evenodd;fill:#159342;fill-opacity:1;" d="M 205.097656 85.476562 C 228.5 85.476562 247.472656 104.449219 247.472656 127.851562 L 226.191406 127.851562 C 226.191406 116.203125 216.746094 106.761719 205.097656 106.761719 C 193.449219 106.761719 184.007812 116.203125 184.007812 127.851562 L 162.722656 127.851562 C 162.722656 104.449219 181.695312 85.476562 205.097656 85.476562 Z M 205.097656 85.476562 "/></g><path style=" stroke:none;fill-rule:evenodd;fill:#d62f5f;fill-opacity:1;" d="M 162.722656 75.195312 C 168.402344 75.195312 173.007812 79.796875 173.007812 85.476562 C 173.007812 91.15625 168.402344 95.761719 162.722656 95.761719 C 157.042969 95.761719 152.441406 91.15625 152.441406 85.476562 C 152.441406 79.796875 157.042969 75.195312 162.722656 75.195312 Z M 162.722656 75.195312 "/><path style=" stroke:none;fill-rule:evenodd;fill:#159342;fill-opacity:1;" d="M 205.097656 32.820312 C 210.777344 32.820312 215.382812 37.421875 215.382812 43.101562 C 215.382812 48.78125 210.777344 53.386719 205.097656 53.386719 C 199.417969 53.386719 194.816406 48.78125 194.816406 43.101562 C 194.816406 37.421875 199.417969 32.820312 205.097656 32.820312 Z M 205.097656 32.820312 "/><g clip-rule="nonzero" clip-path="url(#c8cae254fd)"><path style=" stroke:none;fill-rule:evenodd;fill:#159342;fill-opacity:1;" d="M 132.714844 43.101562 C 134.480469 43.101562 136.246094 43.101562 138.011719 43.101562 C 138.011719 28.976562 138.011719 14.851562 138.011719 0.726562 C 136.246094 0.726562 134.480469 0.726562 132.714844 0.726562 C 132.714844 14.851562 132.714844 28.976562 132.714844 43.101562 Z M 120.347656 43.101562 L 125.644531 43.101562 L 125.644531 0.726562 L 120.347656 0.726562 Z M 157.445312 43.101562 L 162.738281 43.101562 L 162.738281 0.726562 L 157.445312 0.726562 Z M 145.078125 43.101562 C 146.84375 43.101562 148.609375 43.101562 150.375 43.101562 C 150.375 28.976562 150.375 14.851562 150.375 0.726562 C 148.609375 0.726562 146.84375 0.726562 145.078125 0.726562 C 145.078125 14.851562 145.078125 28.976562 145.078125 43.101562 Z M 145.078125 43.101562 "/></g><g clip-rule="nonzero" clip-path="url(#51be3feae5)"><path style=" stroke:none;fill-rule:evenodd;fill:#d62f5f;fill-opacity:1;" d="M 124.078125 254.976562 L 124.078125 296.105469 C 146.792969 296.105469 165.207031 277.691406 165.207031 254.976562 Z M 124.078125 254.976562 "/></g><g clip-rule="nonzero" clip-path="url(#6e09be02e5)"><path style=" stroke:none;fill-rule:evenodd;fill:#0068d4;fill-opacity:1;" d="M 247.464844 337.234375 C 247.464844 359.945312 229.046875 378.363281 206.335938 378.363281 C 183.621094 378.363281 165.207031 359.945312 165.207031 337.234375 C 187.921875 337.234375 206.335938 355.648438 206.335938 378.363281 C 206.335938 355.648438 224.75 337.234375 247.464844 337.234375 Z M 247.464844 337.234375 "/></g><g clip-rule="nonzero" clip-path="url(#1cfe06360c)"><path style=" stroke:none;fill-rule:evenodd;fill:#fffcf7;fill-opacity:1;" d="M 165.207031 337.234375 C 165.207031 314.519531 183.621094 296.105469 206.335938 296.105469 C 229.046875 296.105469 247.464844 314.519531 247.464844 337.234375 C 224.75 337.234375 206.335938 318.820312 206.335938 296.105469 C 206.335938 318.820312 187.921875 337.234375 165.207031 337.234375 Z M 165.207031 337.234375 "/></g><g clip-rule="nonzero" clip-path="url(#1879d91566)"><path style=" stroke:none;fill-rule:evenodd;fill:#fcc800;fill-opacity:1;" d="M 206.335938 254.976562 L 206.335938 296.105469 C 183.621094 296.105469 165.207031 277.691406 165.207031 254.976562 Z M 206.335938 254.976562 "/></g><g clip-rule="nonzero" clip-path="url(#2d19a009fb)"><path style=" stroke:none;fill-rule:evenodd;fill:#159342;fill-opacity:1;" d="M 165.207031 337.234375 C 165.207031 359.945312 146.792969 378.363281 124.078125 378.363281 L 124.078125 357.703125 C 135.382812 357.703125 144.546875 348.539062 144.546875 337.234375 C 144.546875 325.925781 135.382812 316.761719 124.078125 316.761719 L 124.078125 296.105469 C 146.792969 296.105469 165.207031 314.519531 165.207031 337.234375 Z M 165.207031 337.234375 "/></g><path style=" stroke:none;fill-rule:evenodd;fill:#d62f5f;fill-opacity:1;" d="M 175.1875 296.105469 C 175.1875 301.617188 170.71875 306.085938 165.207031 306.085938 C 159.695312 306.085938 155.226562 301.617188 155.226562 296.105469 C 155.226562 290.59375 159.695312 286.125 165.207031 286.125 C 170.71875 286.125 175.1875 290.59375 175.1875 296.105469 Z M 175.1875 296.105469 "/><path style=" stroke:none;fill-rule:evenodd;fill:#159342;fill-opacity:1;" d="M 216.316406 337.234375 C 216.316406 342.746094 211.847656 347.214844 206.335938 347.214844 C 200.820312 347.214844 196.355469 342.746094 196.355469 337.234375 C 196.355469 331.71875 200.820312 327.253906 206.335938 327.253906 C 211.847656 327.253906 216.316406 331.71875 216.316406 337.234375 Z M 216.316406 337.234375 "/><g clip-rule="nonzero" clip-path="url(#5b8e3f6471)"><path style=" stroke:none;fill-rule:evenodd;fill:#159342;fill-opacity:1;" d="M 206.335938 266.976562 C 206.335938 268.691406 206.335938 270.402344 206.335938 272.117188 C 220.042969 272.117188 233.753906 272.117188 247.464844 272.117188 C 247.464844 270.402344 247.464844 268.691406 247.464844 266.976562 C 233.753906 266.976562 220.042969 266.976562 206.335938 266.976562 Z M 206.335938 254.976562 L 206.335938 260.117188 L 247.464844 260.117188 L 247.464844 254.976562 Z M 206.335938 290.980469 L 206.335938 296.121094 L 247.464844 296.121094 L 247.464844 290.980469 Z M 206.335938 278.980469 C 206.335938 280.691406 206.335938 282.40625 206.335938 284.121094 C 220.042969 284.121094 233.753906 284.121094 247.464844 284.121094 C 247.464844 282.40625 247.464844 280.691406 247.464844 278.980469 C 233.753906 278.980469 220.042969 278.980469 206.335938 278.980469 Z M 206.335938 278.980469 "/></g><g clip-rule="nonzero" clip-path="url(#fe45f40fb8)"><path style=" stroke:none;fill-rule:evenodd;fill:#d62f5f;fill-opacity:1;" d="M -0.0078125 482.125 L -0.0078125 522.238281 C 22.144531 522.238281 40.109375 504.277344 40.109375 482.125 Z M -0.0078125 482.125 "/></g><g clip-rule="nonzero" clip-path="url(#675825bee2)"><path style=" stroke:none;fill-rule:evenodd;fill:#0068d4;fill-opacity:1;" d="M 120.339844 562.355469 C 120.339844 584.511719 102.378906 602.472656 80.222656 602.472656 C 58.070312 602.472656 40.109375 584.511719 40.109375 562.355469 C 62.261719 562.355469 80.222656 580.316406 80.222656 602.472656 C 80.222656 580.316406 98.183594 562.355469 120.339844 562.355469 Z M 120.339844 562.355469 "/></g><g clip-rule="nonzero" clip-path="url(#319f217e53)"><path style=" stroke:none;fill-rule:evenodd;fill:#fffcf7;fill-opacity:1;" d="M 40.109375 562.355469 C 40.109375 540.203125 58.070312 522.238281 80.222656 522.238281 C 102.378906 522.238281 120.339844 540.203125 120.339844 562.355469 C 98.183594 562.355469 80.222656 544.394531 80.222656 522.238281 C 80.222656 544.394531 62.261719 562.355469 40.109375 562.355469 Z M 40.109375 562.355469 "/></g><g clip-rule="nonzero" clip-path="url(#dd6c8e6c9b)"><path style=" stroke:none;fill-rule:evenodd;fill:#fcc800;fill-opacity:1;" d="M 80.222656 482.125 L 80.222656 522.238281 C 58.070312 522.238281 40.109375 504.277344 40.109375 482.125 Z M 80.222656 482.125 "/></g><g clip-rule="nonzero" clip-path="url(#096c6ae17a)"><path style=" stroke:none;fill-rule:evenodd;fill:#159342;fill-opacity:1;" d="M 40.109375 562.355469 C 40.109375 584.511719 22.144531 602.472656 -0.0078125 602.472656 L -0.0078125 582.324219 C 11.019531 582.324219 19.957031 573.382812 19.957031 562.355469 C 19.957031 551.328125 11.019531 542.390625 -0.0078125 542.390625 L -0.0078125 522.238281 C 22.144531 522.238281 40.109375 540.203125 40.109375 562.355469 Z M 40.109375 562.355469 "/></g><path style=" stroke:none;fill-rule:evenodd;fill:#d62f5f;fill-opacity:1;" d="M 49.84375 522.238281 C 49.84375 527.617188 45.484375 531.976562 40.109375 531.976562 C 34.730469 531.976562 30.371094 527.617188 30.371094 522.238281 C 30.371094 516.863281 34.730469 512.503906 40.109375 512.503906 C 45.484375 512.503906 49.84375 516.863281 49.84375 522.238281 Z M 49.84375 522.238281 "/><path style=" stroke:none;fill-rule:evenodd;fill:#159342;fill-opacity:1;" d="M 89.957031 562.355469 C 89.957031 567.734375 85.601562 572.089844 80.222656 572.089844 C 74.847656 572.089844 70.488281 567.734375 70.488281 562.355469 C 70.488281 556.980469 74.847656 552.621094 80.222656 552.621094 C 85.601562 552.621094 89.957031 556.980469 89.957031 562.355469 Z M 89.957031 562.355469 "/><g clip-rule="nonzero" clip-path="url(#f40b061312)"><path style=" stroke:none;fill-rule:evenodd;fill:#159342;fill-opacity:1;" d="M 80.222656 493.828125 C 80.222656 495.5 80.222656 497.171875 80.222656 498.84375 C 93.59375 498.84375 106.96875 498.84375 120.339844 498.84375 C 120.339844 497.171875 120.339844 495.5 120.339844 493.828125 C 106.96875 493.828125 93.59375 493.828125 80.222656 493.828125 Z M 80.222656 482.125 L 80.222656 487.136719 L 120.339844 487.136719 L 120.339844 482.125 Z M 80.222656 517.242188 L 80.222656 522.253906 L 120.339844 522.253906 L 120.339844 517.242188 Z M 80.222656 505.535156 C 80.222656 507.207031 80.222656 508.878906 80.222656 510.550781 C 93.59375 510.550781 106.96875 510.550781 120.339844 510.550781 C 120.339844 508.878906 120.339844 507.207031 120.339844 505.535156 C 106.96875 505.535156 93.59375 505.535156 80.222656 505.535156 Z M 80.222656 505.535156 "/></g><g clip-rule="nonzero" clip-path="url(#d9d8b41d62)"><path style=" stroke:none;fill-rule:evenodd;fill:#fffcf7;fill-opacity:1;" d="M 183.90625 222.769531 C 166.65625 222.769531 152.542969 208.660156 152.542969 191.410156 L 120.347656 191.410156 C 120.347656 226.367188 148.949219 254.964844 183.90625 254.964844 Z M 183.90625 222.769531 "/></g><g clip-rule="nonzero" clip-path="url(#ace5436cd2)"><path style=" stroke:none;fill-rule:evenodd;fill:#fcc800;fill-opacity:1;" d="M 247.460938 191.410156 C 247.460938 156.453125 218.863281 127.851562 183.90625 127.851562 L 183.90625 160.046875 C 201.15625 160.046875 215.269531 174.160156 215.269531 191.410156 Z M 247.460938 191.410156 "/></g><g clip-rule="nonzero" clip-path="url(#94ddd802da)"><path style=" stroke:none;fill-rule:evenodd;fill:#d62f5f;fill-opacity:1;" d="M 183.90625 254.964844 L 183.90625 222.769531 C 201.15625 222.769531 215.269531 208.660156 215.269531 191.410156 L 247.460938 191.410156 C 247.460938 226.367188 218.863281 254.964844 183.90625 254.964844 Z M 183.90625 254.964844 "/></g><g clip-rule="nonzero" clip-path="url(#d3289185f9)"><path style=" stroke:none;fill-rule:evenodd;fill:#159342;fill-opacity:1;" d="M 152.128906 127.851562 L 120.347656 127.851562 L 120.347656 159.628906 C 137.898438 159.628906 152.128906 145.402344 152.128906 127.851562 Z M 152.128906 127.851562 "/></g><path style=" stroke:none;fill-rule:evenodd;fill:#159342;fill-opacity:1;" d="M 183.90625 171.445312 C 194.929688 171.445312 203.867188 180.382812 203.867188 191.410156 C 203.867188 202.433594 194.929688 211.371094 183.90625 211.371094 C 172.882812 211.371094 163.945312 202.433594 163.945312 191.410156 C 163.945312 180.382812 172.882812 171.445312 183.90625 171.445312 Z M 183.90625 171.445312 "/><g clip-rule="nonzero" clip-path="url(#8ec2a55f36)"><path style=" stroke:none;fill-rule:evenodd;fill:#0068d4;fill-opacity:1;" d="M 152.128906 159.628906 L 120.347656 159.628906 L 120.347656 191.410156 C 137.898438 191.410156 152.128906 177.179688 152.128906 159.628906 Z M 152.128906 159.628906 "/></g><g clip-rule="nonzero" clip-path="url(#184262e239)"><path style=" stroke:none;fill-rule:evenodd;fill:#fffcf7;fill-opacity:1;" d="M 183.90625 127.851562 L 152.128906 127.851562 L 152.128906 159.628906 C 169.679688 159.628906 183.90625 145.402344 183.90625 127.851562 Z M 183.90625 127.851562 "/></g><g clip-rule="nonzero" clip-path="url(#01f32370dc)"><path style=" stroke:none;fill-rule:nonzero;fill:#d62f5f;fill-opacity:1;" d="M 0.00390625 241.261719 L 60.332031 241.261719 L 60.332031 301.589844 C 27.011719 301.589844 0.00390625 274.582031 0.00390625 241.261719 Z M 0.00390625 241.261719 "/></g><g clip-rule="nonzero" clip-path="url(#f986fb0c18)"><path style=" stroke:none;fill-rule:nonzero;fill:#fffcf7;fill-opacity:1;" d="M 0.00390625 421.609375 C 0.00390625 388.289062 27.011719 361.277344 60.332031 361.277344 C 60.332031 394.597656 33.324219 421.609375 0.00390625 421.609375 Z M 0.00390625 421.609375 "/></g><g clip-rule="nonzero" clip-path="url(#686128b980)"><path style=" stroke:none;fill-rule:nonzero;fill:#0068d4;fill-opacity:1;" d="M 0.00390625 421.285156 C 33.324219 421.285156 60.332031 448.296875 60.332031 481.617188 C 27.011719 481.617188 0.00390625 454.605469 0.00390625 421.285156 Z M 0.00390625 421.285156 "/></g><g clip-rule="nonzero" clip-path="url(#043a301493)"><path style=" stroke:none;fill-rule:nonzero;fill:#0068d4;fill-opacity:1;" d="M 60.011719 451.453125 C 60.011719 450.464844 60.058594 449.480469 60.15625 448.496094 C 60.253906 447.511719 60.398438 446.535156 60.589844 445.566406 C 60.785156 444.597656 61.023438 443.640625 61.3125 442.695312 C 61.597656 441.75 61.929688 440.820312 62.308594 439.910156 C 62.6875 438.996094 63.109375 438.105469 63.574219 437.230469 C 64.039062 436.359375 64.546875 435.515625 65.097656 434.691406 C 65.644531 433.871094 66.234375 433.078125 66.859375 432.316406 C 67.484375 431.550781 68.148438 430.820312 68.847656 430.121094 C 69.546875 429.421875 70.277344 428.761719 71.039062 428.132812 C 71.804688 427.507812 72.597656 426.917969 73.417969 426.371094 C 74.238281 425.820312 75.085938 425.3125 75.957031 424.847656 C 76.828125 424.382812 77.722656 423.960938 78.632812 423.582031 C 79.546875 423.203125 80.476562 422.871094 81.421875 422.585938 C 82.367188 422.300781 83.324219 422.058594 84.292969 421.867188 C 85.261719 421.671875 86.238281 421.527344 87.21875 421.433594 C 88.203125 421.335938 89.1875 421.285156 90.175781 421.285156 C 91.164062 421.285156 92.152344 421.335938 93.132812 421.433594 C 94.117188 421.527344 95.09375 421.671875 96.0625 421.867188 C 97.03125 422.058594 97.988281 422.300781 98.933594 422.585938 C 99.878906 422.871094 100.808594 423.203125 101.722656 423.582031 C 102.632812 423.960938 103.527344 424.382812 104.398438 424.847656 C 105.269531 425.3125 106.113281 425.820312 106.9375 426.371094 C 107.757812 426.917969 108.550781 427.507812 109.3125 428.132812 C 110.078125 428.761719 110.808594 429.421875 111.507812 430.121094 C 112.207031 430.820312 112.867188 431.550781 113.496094 432.316406 C 114.121094 433.078125 114.710938 433.871094 115.257812 434.691406 C 115.808594 435.515625 116.316406 436.359375 116.78125 437.230469 C 117.246094 438.105469 117.667969 438.996094 118.046875 439.910156 C 118.425781 440.820312 118.757812 441.75 119.042969 442.695312 C 119.332031 443.640625 119.570312 444.597656 119.761719 445.566406 C 119.957031 446.535156 120.101562 447.511719 120.199219 448.496094 C 120.292969 449.480469 120.34375 450.464844 120.34375 451.453125 C 120.34375 452.441406 120.292969 453.425781 120.199219 454.410156 C 120.101562 455.390625 119.957031 456.367188 119.761719 457.335938 C 119.570312 458.304688 119.332031 459.261719 119.042969 460.207031 C 118.757812 461.152344 118.425781 462.082031 118.046875 462.996094 C 117.667969 463.910156 117.246094 464.800781 116.78125 465.671875 C 116.316406 466.542969 115.808594 467.390625 115.257812 468.210938 C 114.710938 469.03125 114.121094 469.824219 113.496094 470.589844 C 112.867188 471.351562 112.207031 472.082031 111.507812 472.78125 C 110.808594 473.480469 110.078125 474.144531 109.3125 474.769531 C 108.550781 475.398438 107.757812 475.984375 106.9375 476.535156 C 106.113281 477.082031 105.269531 477.589844 104.398438 478.054688 C 103.527344 478.519531 102.632812 478.941406 101.722656 479.320312 C 100.808594 479.699219 99.878906 480.03125 98.933594 480.320312 C 97.988281 480.605469 97.03125 480.84375 96.0625 481.039062 C 95.09375 481.230469 94.117188 481.375 93.132812 481.472656 C 92.152344 481.570312 91.164062 481.617188 90.175781 481.617188 C 89.1875 481.617188 88.203125 481.570312 87.21875 481.472656 C 86.238281 481.375 85.261719 481.230469 84.292969 481.039062 C 83.324219 480.84375 82.367188 480.605469 81.421875 480.320312 C 80.476562 480.03125 79.546875 479.699219 78.632812 479.320312 C 77.722656 478.941406 76.828125 478.519531 75.957031 478.054688 C 75.085938 477.589844 74.238281 477.082031 73.417969 476.535156 C 72.597656 475.984375 71.804688 475.398438 71.039062 474.769531 C 70.277344 474.144531 69.546875 473.480469 68.847656 472.78125 C 68.148438 472.082031 67.484375 471.351562 66.859375 470.589844 C 66.234375 469.824219 65.644531 469.03125 65.097656 468.210938 C 64.546875 467.390625 64.039062 466.542969 63.574219 465.671875 C 63.109375 464.800781 62.6875 463.910156 62.308594 462.996094 C 61.929688 462.082031 61.597656 461.152344 61.3125 460.207031 C 61.023438 459.261719 60.785156 458.304688 60.589844 457.335938 C 60.398438 456.367188 60.253906 455.390625 60.15625 454.410156 C 60.058594 453.425781 60.011719 452.441406 60.011719 451.453125 Z M 60.011719 451.453125 "/></g><g clip-rule="nonzero" clip-path="url(#118ac5aec9)"><path style=" stroke:none;fill-rule:nonzero;fill:#d62f5f;fill-opacity:1;" d="M 60.011719 301.269531 L 60.011719 361.601562 L 120.34375 361.601562 Z M 60.011719 301.269531 "/></g><g clip-rule="nonzero" clip-path="url(#92186410f3)"><path style=" stroke:none;fill-rule:nonzero;fill:#fffcf7;fill-opacity:1;" d="M 120.34375 241.261719 C 120.34375 274.582031 93.332031 301.589844 60.011719 301.589844 L 60.011719 241.261719 Z M 120.34375 241.261719 "/></g><g clip-rule="nonzero" clip-path="url(#0584e9561c)"><path style=" stroke:none;fill-rule:nonzero;fill:#159342;fill-opacity:1;" d="M 60.011719 211.417969 C 60.011719 210.429688 60.058594 209.441406 60.15625 208.460938 C 60.253906 207.476562 60.398438 206.5 60.589844 205.53125 C 60.785156 204.5625 61.023438 203.605469 61.3125 202.660156 C 61.597656 201.714844 61.929688 200.785156 62.308594 199.871094 C 62.6875 198.960938 63.109375 198.066406 63.574219 197.195312 C 64.039062 196.324219 64.546875 195.480469 65.097656 194.65625 C 65.644531 193.835938 66.234375 193.042969 66.859375 192.28125 C 67.484375 191.515625 68.148438 190.785156 68.847656 190.085938 C 69.546875 189.386719 70.277344 188.726562 71.039062 188.097656 C 71.804688 187.472656 72.597656 186.882812 73.417969 186.335938 C 74.238281 185.785156 75.085938 185.277344 75.957031 184.8125 C 76.828125 184.347656 77.722656 183.925781 78.632812 183.546875 C 79.546875 183.167969 80.476562 182.835938 81.421875 182.550781 C 82.367188 182.261719 83.324219 182.023438 84.292969 181.832031 C 85.261719 181.636719 86.238281 181.492188 87.21875 181.394531 C 88.203125 181.300781 89.1875 181.25 90.175781 181.25 C 91.164062 181.25 92.152344 181.300781 93.132812 181.394531 C 94.117188 181.492188 95.09375 181.636719 96.0625 181.832031 C 97.03125 182.023438 97.988281 182.261719 98.933594 182.550781 C 99.878906 182.835938 100.808594 183.167969 101.722656 183.546875 C 102.632812 183.925781 103.527344 184.347656 104.398438 184.8125 C 105.269531 185.277344 106.113281 185.785156 106.9375 186.335938 C 107.757812 186.882812 108.550781 187.472656 109.3125 188.097656 C 110.078125 188.726562 110.808594 189.386719 111.507812 190.085938 C 112.207031 190.785156 112.867188 191.515625 113.496094 192.28125 C 114.121094 193.042969 114.710938 193.835938 115.257812 194.65625 C 115.808594 195.480469 116.316406 196.324219 116.78125 197.195312 C 117.246094 198.066406 117.667969 198.960938 118.046875 199.871094 C 118.425781 200.785156 118.757812 201.714844 119.042969 202.660156 C 119.332031 203.605469 119.570312 204.5625 119.761719 205.53125 C 119.957031 206.5 120.101562 207.476562 120.199219 208.460938 C 120.292969 209.441406 120.34375 210.429688 120.34375 211.417969 C 120.34375 212.40625 120.292969 213.390625 120.199219 214.375 C 120.101562 215.355469 119.957031 216.332031 119.761719 217.300781 C 119.570312 218.269531 119.332031 219.226562 119.042969 220.171875 C 118.757812 221.117188 118.425781 222.046875 118.046875 222.960938 C 117.667969 223.871094 117.246094 224.765625 116.78125 225.636719 C 116.316406 226.507812 115.808594 227.355469 115.257812 228.175781 C 114.710938 228.996094 114.121094 229.789062 113.496094 230.554688 C 112.867188 231.316406 112.207031 232.046875 111.507812 232.746094 C 110.808594 233.445312 110.078125 234.109375 109.3125 234.734375 C 108.550781 235.363281 107.757812 235.949219 106.9375 236.5 C 106.113281 237.046875 105.269531 237.554688 104.398438 238.019531 C 103.527344 238.484375 102.632812 238.90625 101.722656 239.285156 C 100.808594 239.664062 99.878906 239.996094 98.933594 240.28125 C 97.988281 240.570312 97.03125 240.808594 96.0625 241.003906 C 95.09375 241.195312 94.117188 241.339844 93.132812 241.4375 C 92.152344 241.535156 91.164062 241.582031 90.175781 241.582031 C 89.1875 241.582031 88.203125 241.535156 87.21875 241.4375 C 86.238281 241.339844 85.261719 241.195312 84.292969 241.003906 C 83.324219 240.808594 82.367188 240.570312 81.421875 240.28125 C 80.476562 239.996094 79.546875 239.664062 78.632812 239.285156 C 77.722656 238.90625 76.828125 238.484375 75.957031 238.019531 C 75.085938 237.554688 74.238281 237.046875 73.417969 236.5 C 72.597656 235.949219 71.804688 235.363281 71.039062 234.734375 C 70.277344 234.109375 69.546875 233.445312 68.847656 232.746094 C 68.148438 232.046875 67.484375 231.316406 66.859375 230.554688 C 66.234375 229.789062 65.644531 228.996094 65.097656 228.175781 C 64.546875 227.355469 64.039062 226.507812 63.574219 225.636719 C 63.109375 224.765625 62.6875 223.871094 62.308594 222.960938 C 61.929688 222.046875 61.597656 221.117188 61.3125 220.171875 C 61.023438 219.226562 60.785156 218.269531 60.589844 217.300781 C 60.398438 216.332031 60.253906 215.355469 60.15625 214.375 C 60.058594 213.390625 60.011719 212.40625 60.011719 211.417969 Z M 60.011719 211.417969 "/></g><g clip-rule="nonzero" clip-path="url(#27eaa89f45)"><path style=" stroke:none;fill-rule:nonzero;fill:#0068d4;fill-opacity:1;" d="M 60.011719 181.574219 C 60.011719 148.253906 87.023438 121.242188 120.34375 121.242188 C 120.34375 154.5625 93.332031 181.574219 60.011719 181.574219 Z M 60.011719 181.574219 "/></g><g clip-rule="nonzero" clip-path="url(#eb8bcef17c)"><path style=" stroke:none;fill-rule:nonzero;fill:#159342;fill-opacity:1;" d="M 60.011719 61.234375 C 93.332031 61.234375 120.34375 88.242188 120.34375 121.5625 C 87.023438 121.5625 60.011719 94.554688 60.011719 61.234375 Z M 60.011719 61.234375 "/></g><g clip-rule="nonzero" clip-path="url(#4ef7c1275c)"><path style=" stroke:none;fill-rule:nonzero;fill:#d62f5f;fill-opacity:1;" d="M 60.011719 61.554688 C 60.011719 28.234375 87.023438 1.222656 120.34375 1.222656 L 120.34375 61.554688 Z M 60.011719 61.554688 "/></g><g clip-rule="nonzero" clip-path="url(#9c8189b4c8)"><path style=" stroke:none;fill-rule:nonzero;fill:#159342;fill-opacity:1;" d="M 0.00390625 331.433594 C 0.00390625 330.445312 0.0507812 329.460938 0.148438 328.476562 C 0.246094 327.496094 0.390625 326.519531 0.582031 325.550781 C 0.777344 324.582031 1.015625 323.625 1.300781 322.679688 C 1.589844 321.730469 1.921875 320.804688 2.300781 319.890625 C 2.675781 318.976562 3.097656 318.085938 3.566406 317.214844 C 4.03125 316.34375 4.539062 315.496094 5.085938 314.675781 C 5.636719 313.855469 6.222656 313.0625 6.851562 312.296875 C 7.476562 311.535156 8.140625 310.804688 8.839844 310.105469 C 9.535156 309.40625 10.269531 308.742188 11.03125 308.117188 C 11.796875 307.488281 12.589844 306.902344 13.410156 306.351562 C 14.230469 305.804688 15.078125 305.296875 15.949219 304.832031 C 16.820312 304.363281 17.710938 303.941406 18.625 303.566406 C 19.539062 303.1875 20.464844 302.855469 21.410156 302.566406 C 22.355469 302.28125 23.3125 302.042969 24.285156 301.847656 C 25.253906 301.65625 26.230469 301.511719 27.210938 301.414062 C 28.195312 301.316406 29.179688 301.269531 30.167969 301.269531 C 31.15625 301.269531 32.140625 301.316406 33.125 301.414062 C 34.109375 301.511719 35.085938 301.65625 36.054688 301.847656 C 37.023438 302.042969 37.980469 302.28125 38.925781 302.566406 C 39.871094 302.855469 40.800781 303.1875 41.710938 303.566406 C 42.625 303.941406 43.515625 304.363281 44.386719 304.832031 C 45.257812 305.296875 46.105469 305.804688 46.925781 306.351562 C 47.75 306.902344 48.542969 307.488281 49.304688 308.117188 C 50.070312 308.742188 50.800781 309.40625 51.5 310.105469 C 52.195312 310.804688 52.859375 311.535156 53.488281 312.296875 C 54.113281 313.0625 54.699219 313.855469 55.25 314.675781 C 55.800781 315.496094 56.304688 316.34375 56.773438 317.214844 C 57.238281 318.085938 57.660156 318.976562 58.039062 319.890625 C 58.414062 320.804688 58.75 321.730469 59.035156 322.679688 C 59.320312 323.625 59.5625 324.582031 59.753906 325.550781 C 59.945312 326.519531 60.089844 327.496094 60.1875 328.476562 C 60.285156 329.460938 60.332031 330.445312 60.332031 331.433594 C 60.332031 332.421875 60.285156 333.40625 60.1875 334.390625 C 60.089844 335.375 59.945312 336.351562 59.753906 337.320312 C 59.5625 338.289062 59.320312 339.246094 59.035156 340.191406 C 58.75 341.136719 58.414062 342.066406 58.039062 342.976562 C 57.660156 343.890625 57.238281 344.78125 56.773438 345.652344 C 56.304688 346.527344 55.800781 347.371094 55.25 348.191406 C 54.699219 349.015625 54.113281 349.808594 53.488281 350.570312 C 52.859375 351.335938 52.195312 352.066406 51.5 352.765625 C 50.800781 353.464844 50.070312 354.125 49.304688 354.753906 C 48.542969 355.378906 47.75 355.96875 46.925781 356.515625 C 46.105469 357.066406 45.257812 357.570312 44.386719 358.039062 C 43.515625 358.503906 42.625 358.925781 41.710938 359.304688 C 40.800781 359.679688 39.871094 360.015625 38.925781 360.300781 C 37.980469 360.585938 37.023438 360.828125 36.054688 361.019531 C 35.085938 361.210938 34.109375 361.359375 33.125 361.453125 C 32.140625 361.550781 31.15625 361.601562 30.167969 361.601562 C 29.179688 361.601562 28.195312 361.550781 27.210938 361.453125 C 26.230469 361.359375 25.253906 361.210938 24.285156 361.019531 C 23.3125 360.828125 22.355469 360.585938 21.410156 360.300781 C 20.464844 360.015625 19.539062 359.679688 18.625 359.304688 C 17.710938 358.925781 16.820312 358.503906 15.949219 358.039062 C 15.078125 357.570312 14.230469 357.066406 13.410156 356.515625 C 12.589844 355.96875 11.796875 355.378906 11.03125 354.753906 C 10.269531 354.125 9.535156 353.464844 8.839844 352.765625 C 8.140625 352.066406 7.476562 351.335938 6.851562 350.570312 C 6.222656 349.808594 5.636719 349.015625 5.085938 348.191406 C 4.539062 347.371094 4.03125 346.527344 3.566406 345.652344 C 3.097656 344.78125 2.675781 343.890625 2.300781 342.976562 C 1.921875 342.066406 1.589844 341.136719 1.300781 340.191406 C 1.015625 339.246094 0.777344 338.289062 0.582031 337.320312 C 0.390625 336.351562 0.246094 335.375 0.148438 334.390625 C 0.0507812 333.40625 0.00390625 332.421875 0.00390625 331.433594 Z M 0.00390625 331.433594 "/></g><g clip-rule="nonzero" clip-path="url(#e518b00e26)"><path style=" stroke:none;fill-rule:nonzero;fill:#0068d4;fill-opacity:1;" d="M 0.00390625 241.582031 C 0.00390625 208.261719 27.011719 181.25 60.332031 181.25 L 60.332031 241.582031 Z M 0.00390625 241.582031 "/></g><g clip-rule="nonzero" clip-path="url(#dbf9cb19e6)"><path style=" stroke:none;fill-rule:nonzero;fill:#d62f5f;fill-opacity:1;" d="M 0.00390625 121.242188 L 60.332031 121.242188 L 60.332031 181.574219 Z M 0.00390625 121.242188 "/></g><g clip-rule="nonzero" clip-path="url(#c12a394a77)"><path style=" stroke:none;fill-rule:nonzero;fill:#fffcf7;fill-opacity:1;" d="M 0.00390625 91.398438 C 0.00390625 90.410156 0.0507812 89.425781 0.148438 88.441406 C 0.246094 87.457031 0.390625 86.484375 0.582031 85.515625 C 0.777344 84.542969 1.015625 83.585938 1.300781 82.640625 C 1.589844 81.695312 1.921875 80.769531 2.300781 79.855469 C 2.675781 78.941406 3.097656 78.050781 3.566406 77.179688 C 4.03125 76.308594 4.539062 75.460938 5.085938 74.640625 C 5.636719 73.816406 6.222656 73.027344 6.851562 72.261719 C 7.476562 71.5 8.140625 70.765625 8.839844 70.070312 C 9.535156 69.371094 10.269531 68.707031 11.03125 68.082031 C 11.796875 67.453125 12.589844 66.867188 13.410156 66.316406 C 14.230469 65.769531 15.078125 65.261719 15.949219 64.796875 C 16.820312 64.328125 17.710938 63.90625 18.625 63.53125 C 19.539062 63.152344 20.464844 62.820312 21.410156 62.53125 C 22.355469 62.246094 23.3125 62.003906 24.285156 61.8125 C 25.253906 61.621094 26.230469 61.476562 27.210938 61.378906 C 28.195312 61.28125 29.179688 61.234375 30.167969 61.234375 C 31.15625 61.234375 32.140625 61.28125 33.125 61.378906 C 34.109375 61.476562 35.085938 61.621094 36.054688 61.8125 C 37.023438 62.003906 37.980469 62.246094 38.925781 62.53125 C 39.871094 62.820312 40.800781 63.152344 41.710938 63.53125 C 42.625 63.90625 43.515625 64.328125 44.386719 64.796875 C 45.257812 65.261719 46.105469 65.769531 46.925781 66.316406 C 47.75 66.867188 48.542969 67.453125 49.304688 68.082031 C 50.070312 68.707031 50.800781 69.371094 51.5 70.070312 C 52.195312 70.765625 52.859375 71.5 53.488281 72.261719 C 54.113281 73.027344 54.699219 73.816406 55.25 74.640625 C 55.800781 75.460938 56.304688 76.308594 56.773438 77.179688 C 57.238281 78.050781 57.660156 78.941406 58.039062 79.855469 C 58.414062 80.769531 58.75 81.695312 59.035156 82.640625 C 59.320312 83.585938 59.5625 84.542969 59.753906 85.515625 C 59.945312 86.484375 60.089844 87.457031 60.1875 88.441406 C 60.285156 89.425781 60.332031 90.410156 60.332031 91.398438 C 60.332031 92.386719 60.285156 93.371094 60.1875 94.355469 C 60.089844 95.339844 59.945312 96.316406 59.753906 97.285156 C 59.5625 98.253906 59.320312 99.210938 59.035156 100.15625 C 58.75 101.101562 58.414062 102.03125 58.039062 102.941406 C 57.660156 103.855469 57.238281 104.746094 56.773438 105.617188 C 56.304688 106.488281 55.800781 107.335938 55.25 108.15625 C 54.699219 108.980469 54.113281 109.773438 53.488281 110.535156 C 52.859375 111.300781 52.195312 112.03125 51.5 112.730469 C 50.800781 113.425781 50.070312 114.089844 49.304688 114.71875 C 48.542969 115.34375 47.75 115.929688 46.925781 116.480469 C 46.105469 117.027344 45.257812 117.535156 44.386719 118.003906 C 43.515625 118.46875 42.625 118.890625 41.710938 119.269531 C 40.800781 119.644531 39.871094 119.976562 38.925781 120.265625 C 37.980469 120.550781 37.023438 120.792969 36.054688 120.984375 C 35.085938 121.175781 34.109375 121.320312 33.125 121.417969 C 32.140625 121.515625 31.15625 121.5625 30.167969 121.5625 C 29.179688 121.5625 28.195312 121.515625 27.210938 121.417969 C 26.230469 121.320312 25.253906 121.175781 24.285156 120.984375 C 23.3125 120.792969 22.355469 120.550781 21.410156 120.265625 C 20.464844 119.976562 19.539062 119.644531 18.625 119.269531 C 17.710938 118.890625 16.820312 118.46875 15.949219 118.003906 C 15.078125 117.535156 14.230469 117.027344 13.410156 116.480469 C 12.589844 115.929688 11.796875 115.34375 11.03125 114.71875 C 10.269531 114.089844 9.535156 113.425781 8.839844 112.730469 C 8.140625 112.03125 7.476562 111.300781 6.851562 110.535156 C 6.222656 109.773438 5.636719 108.980469 5.085938 108.15625 C 4.539062 107.335938 4.03125 106.488281 3.566406 105.617188 C 3.097656 104.746094 2.675781 103.855469 2.300781 102.941406 C 1.921875 102.03125 1.589844 101.101562 1.300781 100.15625 C 1.015625 99.210938 0.777344 98.253906 0.582031 97.285156 C 0.390625 96.316406 0.246094 95.339844 0.148438 94.355469 C 0.0507812 93.371094 0.00390625 92.386719 0.00390625 91.398438 Z M 0.00390625 91.398438 "/></g><g clip-rule="nonzero" clip-path="url(#aab1f00b7d)"><path style=" stroke:none;fill-rule:nonzero;fill:#159342;fill-opacity:1;" d="M 0.00390625 61.554688 L 0.00390625 1.222656 L 60.332031 61.554688 Z M 0.00390625 61.554688 "/></g><g clip-rule="nonzero" clip-path="url(#5176a62c57)"><path style=" stroke:none;fill-rule:nonzero;fill:#159342;fill-opacity:1;" d="M 120.34375 421.609375 L 120.34375 361.277344 L 60.011719 421.609375 Z M 120.34375 421.609375 "/></g><g clip-rule="nonzero" clip-path="url(#e4b88902ad)"><path style=" stroke:none;fill-rule:evenodd;fill:#fffcf7;fill-opacity:1;" d="M 63.558594 697.390625 C 80.808594 697.390625 94.921875 683.28125 94.921875 666.03125 L 127.117188 666.03125 C 127.117188 700.988281 98.515625 729.585938 63.558594 729.585938 Z M 63.558594 697.390625 "/></g><g clip-rule="nonzero" clip-path="url(#e9838f3f97)"><path style=" stroke:none;fill-rule:evenodd;fill:#fcc800;fill-opacity:1;" d="M 0.00390625 666.03125 C 0.00390625 631.074219 28.601562 602.472656 63.558594 602.472656 L 63.558594 634.667969 C 46.308594 634.667969 32.199219 648.78125 32.199219 666.03125 Z M 0.00390625 666.03125 "/></g><g clip-rule="nonzero" clip-path="url(#2d93df14eb)"><path style=" stroke:none;fill-rule:evenodd;fill:#d62f5f;fill-opacity:1;" d="M 63.558594 729.585938 L 63.558594 697.390625 C 46.308594 697.390625 32.199219 683.28125 32.199219 666.03125 L 0.00390625 666.03125 C 0.00390625 700.988281 28.601562 729.585938 63.558594 729.585938 Z M 63.558594 729.585938 "/></g><g clip-rule="nonzero" clip-path="url(#7380f78581)"><path style=" stroke:none;fill-rule:evenodd;fill:#159342;fill-opacity:1;" d="M 95.335938 602.472656 L 127.117188 602.472656 L 127.117188 634.253906 C 109.566406 634.253906 95.335938 620.023438 95.335938 602.472656 Z M 95.335938 602.472656 "/></g><path style=" stroke:none;fill-rule:evenodd;fill:#159342;fill-opacity:1;" d="M 63.558594 646.070312 C 52.535156 646.070312 43.597656 655.003906 43.597656 666.03125 C 43.597656 677.054688 52.535156 685.992188 63.558594 685.992188 C 74.582031 685.992188 83.519531 677.054688 83.519531 666.03125 C 83.519531 655.003906 74.582031 646.070312 63.558594 646.070312 Z M 63.558594 646.070312 "/><g clip-rule="nonzero" clip-path="url(#e149dbe8cf)"><path style=" stroke:none;fill-rule:evenodd;fill:#0068d4;fill-opacity:1;" d="M 95.335938 634.253906 L 127.117188 634.253906 L 127.117188 666.03125 C 109.566406 666.03125 95.335938 651.804688 95.335938 634.253906 Z M 95.335938 634.253906 "/></g><g clip-rule="nonzero" clip-path="url(#2a52dfc014)"><path style=" stroke:none;fill-rule:evenodd;fill:#fffcf7;fill-opacity:1;" d="M 63.558594 602.472656 L 95.335938 602.472656 L 95.335938 634.253906 C 77.785156 634.253906 63.558594 620.023438 63.558594 602.472656 Z M 63.558594 602.472656 "/></g></g></svg>