<svg xmlns="http://www.w3.org/2000/svg" xmlns:xlink="http://www.w3.org/1999/xlink" width="89" zoomAndPan="magnify" viewBox="0 0 66.75 92.999996" height="124" preserveAspectRatio="xMidYMid meet" version="1.2"><defs><clipPath id="c06ef7d2c3"><path d="M 18.476562 78.363281 L 25.019531 78.363281 L 25.019531 84.90625 L 18.476562 84.90625 Z M 18.476562 78.363281 "/></clipPath><clipPath id="cf07639418"><path d="M 21.75 78.363281 C 19.941406 78.363281 18.476562 79.828125 18.476562 81.636719 C 18.476562 83.441406 19.941406 84.90625 21.75 84.90625 C 23.554688 84.90625 25.019531 83.441406 25.019531 81.636719 C 25.019531 79.828125 23.554688 78.363281 21.75 78.363281 Z M 21.75 78.363281 "/></clipPath><clipPath id="06aa8a81ef"><path d="M 11 0.171875 L 26 0.171875 L 26 17 L 11 17 Z M 11 0.171875 "/></clipPath><clipPath id="884e646908"><path d="M 0 19 L 56 19 L 56 92.824219 L 0 92.824219 Z M 0 19 "/></clipPath><clipPath id="270c0d84b8"><path d="M 57 28 L 65.753906 28 L 65.753906 38 L 57 38 Z M 57 28 "/></clipPath></defs><g id="7369721749"><g clip-rule="nonzero" clip-path="url(#c06ef7d2c3)"><g clip-rule="nonzero" clip-path="url(#cf07639418)"><path style=" stroke:none;fill-rule:nonzero;fill:#d62f5f;fill-opacity:1;" d="M 18.476562 78.363281 L 25.019531 78.363281 L 25.019531 84.90625 L 18.476562 84.90625 Z M 18.476562 78.363281 "/></g></g><g clip-rule="nonzero" clip-path="url(#06aa8a81ef)"><path style=" stroke:none;fill-rule:nonzero;fill:#d62f5f;fill-opacity:1;" d="M 16.015625 15.78125 C 16.941406 16.242188 17.921875 16.46875 18.953125 16.460938 C 19.988281 16.453125 20.964844 16.210938 21.882812 15.730469 C 22.777344 15.230469 23.546875 14.582031 24.1875 13.78125 C 24.832031 12.984375 25.300781 12.09375 25.597656 11.113281 C 25.71875 10.644531 25.800781 10.167969 25.839844 9.683594 C 25.878906 9.203125 25.878906 8.722656 25.839844 8.238281 C 25.796875 7.757812 25.71875 7.28125 25.597656 6.8125 C 25.476562 6.34375 25.316406 5.890625 25.121094 5.449219 C 24.921875 5.007812 24.6875 4.585938 24.421875 4.183594 C 24.152344 3.78125 23.851562 3.402344 23.519531 3.050781 C 23.1875 2.699219 22.828125 2.375 22.441406 2.085938 C 22.054688 1.792969 21.648438 1.535156 21.21875 1.3125 C 20.714844 1.050781 20.183594 0.855469 19.628906 0.730469 C 19.074219 0.601562 18.511719 0.550781 17.941406 0.570312 C 17.371094 0.589844 16.816406 0.683594 16.269531 0.851562 C 15.726562 1.015625 15.210938 1.25 14.726562 1.550781 C 13.84375 2.117188 13.121094 2.84375 12.558594 3.726562 C 11.996094 4.613281 11.644531 5.574219 11.507812 6.613281 C 11.25 8.222656 11.417969 9.789062 12.011719 11.304688 C 12.390625 12.265625 12.925781 13.132812 13.613281 13.902344 C 14.300781 14.671875 15.101562 15.296875 16.015625 15.78125 Z M 16.015625 15.78125 "/></g><path style=" stroke:none;fill-rule:nonzero;fill:#d62f5f;fill-opacity:1;" d="M 31.636719 13.90625 C 31.957031 14.0625 32.289062 14.191406 32.632812 14.289062 C 32.976562 14.386719 33.328125 14.453125 33.679688 14.484375 C 34.035156 14.519531 34.394531 14.523438 34.75 14.492188 C 35.105469 14.460938 35.453125 14.402344 35.800781 14.308594 C 36.144531 14.214844 36.476562 14.089844 36.800781 13.9375 C 37.121094 13.785156 37.429688 13.601562 37.71875 13.394531 C 38.007812 13.183594 38.277344 12.953125 38.523438 12.695312 C 38.769531 12.4375 38.992188 12.160156 39.191406 11.863281 C 39.390625 11.566406 39.558594 11.253906 39.699219 10.925781 C 39.839844 10.597656 39.949219 10.257812 40.03125 9.910156 C 40.109375 9.5625 40.160156 9.210938 40.175781 8.851562 C 40.191406 8.496094 40.175781 8.140625 40.128906 7.789062 C 40.078125 7.433594 40 7.085938 39.890625 6.746094 C 39.78125 6.40625 39.640625 6.082031 39.46875 5.765625 C 39.300781 5.453125 39.105469 5.15625 38.882812 4.875 C 38.660156 4.597656 38.414062 4.339844 38.144531 4.105469 C 37.46875 3.539062 36.703125 3.140625 35.851562 2.910156 C 35 2.679688 34.140625 2.640625 33.269531 2.789062 C 32.519531 2.933594 31.824219 3.207031 31.175781 3.617188 C 30.53125 4.023438 29.984375 4.535156 29.53125 5.152344 C 29.097656 5.765625 28.792969 6.441406 28.625 7.175781 C 28.457031 7.910156 28.433594 8.648438 28.554688 9.390625 C 28.679688 10.347656 29.011719 11.222656 29.554688 12.019531 C 30.097656 12.816406 30.792969 13.445312 31.636719 13.90625 Z M 31.636719 13.90625 "/><path style=" stroke:none;fill-rule:nonzero;fill:#d62f5f;fill-opacity:1;" d="M 47.535156 19.265625 C 48.503906 19.15625 49.382812 18.816406 50.171875 18.246094 C 50.964844 17.675781 51.5625 16.949219 51.972656 16.0625 C 52.515625 14.90625 52.648438 13.703125 52.378906 12.453125 C 52.210938 11.714844 51.902344 11.042969 51.453125 10.433594 C 51.003906 9.824219 50.449219 9.332031 49.792969 8.957031 C 49.246094 8.636719 48.660156 8.417969 48.039062 8.304688 C 47.414062 8.1875 46.792969 8.179688 46.164062 8.28125 C 45.539062 8.382812 44.949219 8.585938 44.394531 8.894531 C 43.839844 9.199219 43.355469 9.589844 42.9375 10.066406 C 41.996094 11.097656 41.539062 12.3125 41.570312 13.707031 C 41.5625 14.4375 41.691406 15.144531 41.957031 15.824219 C 42.222656 16.507812 42.605469 17.113281 43.109375 17.648438 C 43.679688 18.242188 44.355469 18.683594 45.136719 18.96875 C 45.914062 19.25 46.714844 19.351562 47.535156 19.265625 Z M 47.535156 19.265625 "/><path style=" stroke:none;fill-rule:nonzero;fill:#d62f5f;fill-opacity:1;" d="M 61.09375 22.101562 C 60.957031 21.300781 60.648438 20.570312 60.164062 19.917969 C 59.683594 19.261719 59.078125 18.753906 58.347656 18.390625 C 57.359375 17.933594 56.324219 17.804688 55.253906 18 C 54.585938 18.132812 53.972656 18.390625 53.414062 18.78125 C 52.855469 19.167969 52.394531 19.652344 52.039062 20.230469 C 51.859375 20.527344 51.714844 20.84375 51.601562 21.175781 C 51.488281 21.503906 51.410156 21.84375 51.367188 22.191406 C 51.324219 22.535156 51.320312 22.882812 51.351562 23.230469 C 51.382812 23.578125 51.449219 23.921875 51.550781 24.253906 C 51.65625 24.585938 51.792969 24.90625 51.960938 25.210938 C 52.132812 25.515625 52.332031 25.800781 52.5625 26.0625 C 52.792969 26.324219 53.050781 26.5625 53.328125 26.769531 C 53.609375 26.980469 53.90625 27.15625 54.226562 27.300781 C 54.855469 27.609375 55.523438 27.765625 56.226562 27.769531 C 56.929688 27.777344 57.601562 27.632812 58.238281 27.339844 C 58.726562 27.113281 59.164062 26.816406 59.558594 26.449219 C 59.949219 26.082031 60.273438 25.664062 60.53125 25.191406 C 60.789062 24.71875 60.964844 24.21875 61.058594 23.691406 C 61.15625 23.164062 61.167969 22.632812 61.09375 22.101562 Z M 61.09375 22.101562 "/><g clip-rule="nonzero" clip-path="url(#884e646908)"><path style=" stroke:none;fill-rule:nonzero;fill:#d62f5f;fill-opacity:1;" d="M 51.253906 31.851562 C 49.035156 28.308594 46.183594 25.386719 42.695312 23.085938 C 40.492188 21.628906 38.109375 20.574219 35.550781 19.921875 C 32.992188 19.265625 30.394531 19.050781 27.761719 19.273438 C 26.71875 19.316406 25.691406 19.476562 24.683594 19.75 C 23.242188 20.09375 21.851562 20.585938 20.511719 21.226562 C 18.355469 22.296875 16.515625 23.765625 15 25.636719 C 14.191406 26.597656 13.511719 27.644531 12.960938 28.769531 C 11.839844 31.136719 11.335938 33.625 11.449219 36.238281 C 11.8125 39.363281 12.003906 42.496094 12.03125 45.640625 C 12.011719 48.558594 11.539062 51.398438 10.617188 54.164062 C 9.695312 56.929688 8.367188 59.488281 6.636719 61.832031 C 4.660156 64.253906 2.914062 66.828125 1.394531 69.558594 C 0.386719 71.765625 -0.046875 74.082031 0.0898438 76.503906 C 0.253906 79.105469 1.035156 81.507812 2.433594 83.707031 C 3.671875 85.617188 5.203125 87.257812 7.027344 88.628906 C 8.25 89.554688 9.570312 90.304688 10.996094 90.878906 C 13.789062 91.957031 16.671875 92.296875 19.640625 91.894531 C 21.570312 91.660156 23.363281 91.03125 25.015625 90.015625 C 27.234375 88.496094 29.136719 86.652344 30.726562 84.488281 C 33.648438 80.664062 36.574219 76.839844 39.503906 73.019531 C 42.648438 68.890625 45.746094 64.726562 48.945312 60.636719 C 50.546875 58.683594 51.933594 56.585938 53.097656 54.34375 C 54.007812 52.40625 54.625 50.378906 54.941406 48.261719 C 55.261719 45.441406 55.097656 42.644531 54.457031 39.878906 C 53.820312 37.03125 52.753906 34.355469 51.253906 31.851562 Z M 43.683594 52.066406 C 43.246094 54.515625 42.296875 56.75 40.839844 58.765625 C 40.152344 59.796875 39.320312 60.695312 38.347656 61.457031 C 37.371094 62.222656 36.300781 62.8125 35.132812 63.230469 C 33.167969 63.710938 31.183594 63.789062 29.1875 63.460938 C 28.570312 63.734375 28.042969 64.210938 27.429688 64.515625 C 23.960938 66.351562 20.265625 67.175781 16.347656 66.984375 C 15.335938 67.023438 14.359375 66.863281 13.417969 66.507812 C 13.257812 66.429688 13.117188 66.320312 12.992188 66.1875 C 12.871094 66.058594 12.777344 65.90625 12.710938 65.742188 C 12.640625 65.574219 12.605469 65.402344 12.601562 65.222656 C 12.597656 65.042969 12.625 64.867188 12.683594 64.699219 C 12.789062 64.414062 12.972656 64.191406 13.238281 64.039062 C 13.5 63.882812 13.78125 63.828125 14.082031 63.871094 C 15.390625 64.160156 16.710938 64.261719 18.046875 64.171875 C 20.238281 64.121094 22.367188 63.71875 24.425781 62.957031 C 25.839844 62.445312 27.214844 61.835938 28.628906 61.335938 C 30.199219 60.761719 31.628906 59.945312 32.914062 58.878906 C 34.15625 57.816406 35.230469 56.605469 36.144531 55.25 C 37.527344 53.171875 38.195312 50.882812 38.144531 48.390625 C 38.125 47.140625 37.914062 45.929688 37.503906 44.753906 C 37.09375 43.574219 36.507812 42.492188 35.746094 41.503906 C 35.796875 42.015625 36.023438 42.488281 36.09375 42.996094 C 36.335938 44.144531 36.429688 45.304688 36.382812 46.476562 C 36.335938 47.648438 36.148438 48.796875 35.816406 49.921875 C 35.488281 51.046875 35.023438 52.113281 34.429688 53.125 C 33.832031 54.136719 33.125 55.058594 32.300781 55.890625 C 30.679688 57.53125 28.777344 58.726562 26.597656 59.46875 C 26.234375 59.636719 25.855469 59.742188 25.460938 59.78125 C 24.527344 58.136719 24.203125 56.378906 24.496094 54.507812 C 24.8125 52.277344 25.636719 50.257812 26.976562 48.449219 C 28.113281 46.984375 29.125 45.4375 30.011719 43.804688 C 30.824219 42.207031 31.183594 40.511719 31.085938 38.71875 C 30.945312 37.589844 30.625 36.511719 30.125 35.488281 C 29.992188 35.148438 29.78125 34.765625 29.941406 34.398438 C 30.050781 34.171875 30.21875 34.007812 30.445312 33.90625 C 30.675781 33.808594 30.910156 33.792969 31.148438 33.863281 C 31.765625 34.042969 32.367188 34.265625 32.953125 34.53125 C 35.382812 35.539062 37.523438 36.972656 39.386719 38.828125 C 41.117188 40.523438 42.378906 42.515625 43.167969 44.804688 C 43.945312 47.183594 44.117188 49.605469 43.683594 52.066406 Z M 43.683594 52.066406 "/></g><g clip-rule="nonzero" clip-path="url(#270c0d84b8)"><path style=" stroke:none;fill-rule:nonzero;fill:#d62f5f;fill-opacity:1;" d="M 63.507812 29.503906 C 62.539062 28.960938 61.511719 28.804688 60.421875 29.035156 C 59.859375 29.148438 59.34375 29.371094 58.875 29.703125 C 58.402344 30.03125 58.019531 30.441406 57.71875 30.929688 C 57.441406 31.394531 57.253906 31.894531 57.160156 32.429688 C 57.0625 32.960938 57.0625 33.496094 57.164062 34.03125 C 57.261719 34.5625 57.449219 35.0625 57.730469 35.527344 C 58.011719 35.992188 58.363281 36.390625 58.789062 36.726562 C 59.390625 37.199219 60.070312 37.484375 60.828125 37.585938 C 61.585938 37.683594 62.316406 37.578125 63.015625 37.273438 C 63.773438 36.953125 64.390625 36.453125 64.867188 35.78125 C 65.34375 35.109375 65.609375 34.363281 65.660156 33.539062 C 65.710938 32.71875 65.542969 31.945312 65.15625 31.214844 C 64.769531 30.488281 64.222656 29.917969 63.507812 29.503906 Z M 63.507812 29.503906 "/></g></g></svg>