<svg xmlns="http://www.w3.org/2000/svg" xmlns:xlink="http://www.w3.org/1999/xlink" width="344" zoomAndPan="magnify" viewBox="0 0 258 255.749984" height="341" preserveAspectRatio="xMidYMid meet" version="1.2"><defs><clipPath id="8fb0976a7d"><path d="M 3.871094 131.046875 L 46 131.046875 L 46 173 L 3.871094 173 Z M 3.871094 131.046875 "/></clipPath><clipPath id="552afc471e"><path d="M 45 213 L 127.5 213 L 127.5 254.675781 L 45 254.675781 Z M 45 213 "/></clipPath><clipPath id="ed7f2bf9f3"><path d="M 45 172 L 127.5 172 L 127.5 214 L 45 214 Z M 45 172 "/></clipPath><clipPath id="2f3de4fd33"><path d="M 45 131.046875 L 87 131.046875 L 87 173 L 45 173 Z M 45 131.046875 "/></clipPath><clipPath id="370d277005"><path d="M 3.871094 172 L 46 172 L 46 254.675781 L 3.871094 254.675781 Z M 3.871094 172 "/></clipPath><clipPath id="0f4a963acd"><path d="M 86 131.046875 L 127.5 131.046875 L 127.5 173 L 86 173 Z M 86 131.046875 "/></clipPath><clipPath id="fbf0c72531"><path d="M 0.125 67 L 64 67 L 64 131.039062 L 0.125 131.039062 Z M 0.125 67 "/></clipPath><clipPath id="8ff58fc0c6"><path d="M 63 3.664062 L 127.5 3.664062 L 127.5 68 L 63 68 Z M 63 3.664062 "/></clipPath><clipPath id="b7719f7399"><path d="M 63 67 L 127.5 67 L 127.5 131.039062 L 63 131.039062 Z M 63 67 "/></clipPath><clipPath id="dcff39688f"><path d="M 0.125 3.664062 L 32 3.664062 L 32 36 L 0.125 36 Z M 0.125 3.664062 "/></clipPath><clipPath id="1411f84f49"><path d="M 0.125 35 L 32 35 L 32 68 L 0.125 68 Z M 0.125 35 "/></clipPath><clipPath id="ddca5783b8"><path d="M 31 3.664062 L 64 3.664062 L 64 36 L 31 36 Z M 31 3.664062 "/></clipPath><clipPath id="1cc0f6f11b"><path d="M 130.074219 84 L 173 84 L 173 127.375 L 130.074219 127.375 Z M 130.074219 84 "/></clipPath><clipPath id="f71e7fba65"><path d="M 215 0 L 257.453125 0 L 257.453125 85 L 215 85 Z M 215 0 "/></clipPath><clipPath id="61f2a92bb5"><path d="M 130.074219 42 L 173 42 L 173 85 L 130.074219 85 Z M 130.074219 42 "/></clipPath><clipPath id="b66d5f6c29"><path d="M 172 84 L 257.453125 84 L 257.453125 127.375 L 172 127.375 Z M 172 84 "/></clipPath><clipPath id="8d896f6c71"><path d="M 130.074219 0 L 173 0 L 173 43 L 130.074219 43 Z M 130.074219 0 "/></clipPath></defs><g id="075429e7e6"><g clip-rule="nonzero" clip-path="url(#8fb0976a7d)"><path style=" stroke:none;fill-rule:evenodd;fill:#d62f5f;fill-opacity:1;" d="M 3.863281 131.046875 L 3.863281 172.261719 C 26.621094 172.261719 45.074219 153.808594 45.074219 131.046875 Z M 3.863281 131.046875 "/></g><g clip-rule="nonzero" clip-path="url(#552afc471e)"><path style=" stroke:none;fill-rule:evenodd;fill:#02abf3;fill-opacity:1;" d="M 127.5 213.472656 C 127.5 236.234375 109.046875 254.6875 86.285156 254.6875 C 63.527344 254.6875 45.074219 236.234375 45.074219 213.472656 C 67.835938 213.472656 86.285156 231.925781 86.285156 254.6875 C 86.285156 231.925781 104.738281 213.472656 127.5 213.472656 Z M 127.5 213.472656 "/></g><g clip-rule="nonzero" clip-path="url(#ed7f2bf9f3)"><path style=" stroke:none;fill-rule:evenodd;fill:#0068d4;fill-opacity:1;" d="M 45.074219 213.472656 C 45.074219 190.710938 63.527344 172.261719 86.285156 172.261719 C 109.046875 172.261719 127.5 190.710938 127.5 213.472656 C 104.738281 213.472656 86.285156 195.019531 86.285156 172.261719 C 86.285156 195.019531 67.835938 213.472656 45.074219 213.472656 Z M 45.074219 213.472656 "/></g><g clip-rule="nonzero" clip-path="url(#2f3de4fd33)"><path style=" stroke:none;fill-rule:evenodd;fill:#fcc800;fill-opacity:1;" d="M 86.285156 131.046875 L 86.285156 172.261719 C 63.527344 172.261719 45.074219 153.808594 45.074219 131.046875 Z M 86.285156 131.046875 "/></g><g clip-rule="nonzero" clip-path="url(#370d277005)"><path style=" stroke:none;fill-rule:evenodd;fill:#159342;fill-opacity:1;" d="M 45.074219 213.472656 C 45.074219 236.234375 26.621094 254.6875 3.863281 254.6875 L 3.863281 233.984375 C 15.191406 233.984375 24.375 224.800781 24.375 213.472656 C 24.375 202.144531 15.191406 192.960938 3.863281 192.960938 L 3.863281 172.261719 C 26.621094 172.261719 45.074219 190.710938 45.074219 213.472656 Z M 45.074219 213.472656 "/></g><path style=" stroke:none;fill-rule:evenodd;fill:#d62f5f;fill-opacity:1;" d="M 55.074219 172.261719 C 55.074219 177.785156 50.597656 182.261719 45.074219 182.261719 C 39.550781 182.261719 35.074219 177.785156 35.074219 172.261719 C 35.074219 166.738281 39.550781 162.257812 45.074219 162.257812 C 50.597656 162.257812 55.074219 166.738281 55.074219 172.261719 Z M 55.074219 172.261719 "/><path style=" stroke:none;fill-rule:evenodd;fill:#159342;fill-opacity:1;" d="M 96.289062 213.472656 C 96.289062 218.996094 91.8125 223.472656 86.285156 223.472656 C 80.761719 223.472656 76.285156 218.996094 76.285156 213.472656 C 76.285156 207.949219 80.761719 203.472656 86.285156 203.472656 C 91.8125 203.472656 96.289062 207.949219 96.289062 213.472656 Z M 96.289062 213.472656 "/><g clip-rule="nonzero" clip-path="url(#0f4a963acd)"><path style=" stroke:none;fill-rule:evenodd;fill:#159342;fill-opacity:1;" d="M 86.285156 143.074219 C 86.285156 144.792969 86.285156 146.507812 86.285156 148.226562 C 100.023438 148.226562 113.761719 148.226562 127.5 148.226562 C 127.5 146.507812 127.5 144.792969 127.5 143.074219 C 113.761719 143.074219 100.023438 143.074219 86.285156 143.074219 Z M 86.285156 131.046875 L 86.285156 136.199219 L 127.5 136.199219 L 127.5 131.046875 Z M 86.285156 167.125 L 86.285156 172.277344 L 127.5 172.277344 L 127.5 167.125 Z M 86.285156 155.101562 C 86.285156 156.816406 86.285156 158.535156 86.285156 160.25 C 100.023438 160.25 113.761719 160.25 127.5 160.25 C 127.5 158.535156 127.5 156.816406 127.5 155.101562 C 113.761719 155.101562 100.023438 155.101562 86.285156 155.101562 Z M 86.285156 155.101562 "/></g><g clip-rule="nonzero" clip-path="url(#fbf0c72531)"><path style=" stroke:none;fill-rule:evenodd;fill:#2f337a;fill-opacity:1;" d="M 63.8125 98.777344 C 46.527344 98.777344 32.386719 84.636719 32.386719 67.351562 L 0.125 67.351562 C 0.125 102.378906 28.785156 131.035156 63.8125 131.035156 Z M 63.8125 98.777344 "/></g><g clip-rule="nonzero" clip-path="url(#8ff58fc0c6)"><path style=" stroke:none;fill-rule:evenodd;fill:#ffb803;fill-opacity:1;" d="M 127.5 67.351562 C 127.5 32.324219 98.84375 3.664062 63.8125 3.664062 L 63.8125 35.925781 C 81.097656 35.925781 95.238281 50.066406 95.238281 67.351562 Z M 127.5 67.351562 "/></g><g clip-rule="nonzero" clip-path="url(#b7719f7399)"><path style=" stroke:none;fill-rule:evenodd;fill:#d62f5f;fill-opacity:1;" d="M 63.8125 131.035156 L 63.8125 98.777344 C 81.097656 98.777344 95.238281 84.636719 95.238281 67.351562 L 127.5 67.351562 C 127.5 102.378906 98.84375 131.035156 63.8125 131.035156 Z M 63.8125 131.035156 "/></g><g clip-rule="nonzero" clip-path="url(#dcff39688f)"><path style=" stroke:none;fill-rule:evenodd;fill:#43bb8d;fill-opacity:1;" d="M 31.96875 3.664062 L 0.125 3.664062 L 0.125 35.507812 C 17.710938 35.507812 31.96875 21.25 31.96875 3.664062 Z M 31.96875 3.664062 "/></g><path style=" stroke:none;fill-rule:evenodd;fill:#43bb8d;fill-opacity:1;" d="M 63.8125 47.347656 C 74.859375 47.347656 83.8125 56.304688 83.8125 67.351562 C 83.8125 78.398438 74.859375 87.351562 63.8125 87.351562 C 52.765625 87.351562 43.808594 78.398438 43.808594 67.351562 C 43.808594 56.304688 52.765625 47.347656 63.8125 47.347656 Z M 63.8125 47.347656 "/><g clip-rule="nonzero" clip-path="url(#1411f84f49)"><path style=" stroke:none;fill-rule:evenodd;fill:#3e58c9;fill-opacity:1;" d="M 31.96875 35.507812 L 0.125 35.507812 L 0.125 67.351562 C 17.710938 67.351562 31.96875 53.09375 31.96875 35.507812 Z M 31.96875 35.507812 "/></g><g clip-rule="nonzero" clip-path="url(#ddca5783b8)"><path style=" stroke:none;fill-rule:evenodd;fill:#2f337a;fill-opacity:1;" d="M 63.8125 3.664062 L 31.96875 3.664062 L 31.96875 35.507812 C 49.554688 35.507812 63.8125 21.25 63.8125 3.664062 Z M 63.8125 3.664062 "/></g><g clip-rule="nonzero" clip-path="url(#1cc0f6f11b)"><path style=" stroke:none;fill-rule:evenodd;fill:#d62f5f;fill-opacity:1;" d="M 130.074219 127.382812 L 172.539062 127.382812 C 172.539062 103.933594 153.527344 84.921875 130.074219 84.921875 Z M 130.074219 127.382812 "/></g><g clip-rule="nonzero" clip-path="url(#f71e7fba65)"><path style=" stroke:none;fill-rule:evenodd;fill:#02abf3;fill-opacity:1;" d="M 215 0 C 238.449219 0 257.460938 19.011719 257.460938 42.460938 C 257.460938 65.910156 238.449219 84.921875 215 84.921875 C 215 61.472656 234.011719 42.460938 257.460938 42.460938 C 234.011719 42.460938 215 23.449219 215 0 Z M 215 0 "/></g><path style=" stroke:none;fill-rule:evenodd;fill:#0068d4;fill-opacity:1;" d="M 215 84.921875 C 191.550781 84.921875 172.539062 65.910156 172.539062 42.460938 C 172.539062 19.011719 191.550781 0 215 0 C 215 23.449219 195.988281 42.460938 172.539062 42.460938 C 195.988281 42.460938 215 61.472656 215 84.921875 Z M 215 84.921875 "/><g clip-rule="nonzero" clip-path="url(#61f2a92bb5)"><path style=" stroke:none;fill-rule:evenodd;fill:#fcc800;fill-opacity:1;" d="M 130.074219 42.460938 L 172.539062 42.460938 C 172.539062 65.910156 153.527344 84.921875 130.074219 84.921875 Z M 130.074219 42.460938 "/></g><g clip-rule="nonzero" clip-path="url(#b66d5f6c29)"><path style=" stroke:none;fill-rule:evenodd;fill:#159342;fill-opacity:1;" d="M 215 84.921875 C 238.449219 84.921875 257.460938 103.933594 257.460938 127.382812 L 236.132812 127.382812 C 236.132812 115.710938 226.671875 106.25 215 106.25 C 203.328125 106.25 193.863281 115.710938 193.863281 127.382812 L 172.539062 127.382812 C 172.539062 103.933594 191.550781 84.921875 215 84.921875 Z M 215 84.921875 "/></g><path style=" stroke:none;fill-rule:evenodd;fill:#d62f5f;fill-opacity:1;" d="M 172.539062 74.617188 C 178.230469 74.617188 182.839844 79.230469 182.839844 84.921875 C 182.839844 90.613281 178.230469 95.226562 172.539062 95.226562 C 166.847656 95.226562 162.234375 90.613281 162.234375 84.921875 C 162.234375 79.230469 166.847656 74.617188 172.539062 74.617188 Z M 172.539062 74.617188 "/><path style=" stroke:none;fill-rule:evenodd;fill:#159342;fill-opacity:1;" d="M 215 32.15625 C 220.691406 32.15625 225.304688 36.769531 225.304688 42.460938 C 225.304688 48.152344 220.691406 52.765625 215 52.765625 C 209.308594 52.765625 204.695312 48.152344 204.695312 42.460938 C 204.695312 36.769531 209.308594 32.15625 215 32.15625 Z M 215 32.15625 "/><g clip-rule="nonzero" clip-path="url(#8d896f6c71)"><path style=" stroke:none;fill-rule:evenodd;fill:#159342;fill-opacity:1;" d="M 142.464844 42.460938 C 144.234375 42.460938 146.003906 42.460938 147.773438 42.460938 C 147.773438 28.308594 147.773438 14.152344 147.773438 0 C 146.003906 0 144.234375 0 142.464844 0 C 142.464844 14.152344 142.464844 28.308594 142.464844 42.460938 Z M 130.074219 42.460938 L 135.382812 42.460938 L 135.382812 0 L 130.074219 0 Z M 167.246094 42.460938 L 172.554688 42.460938 L 172.554688 0 L 167.246094 0 Z M 154.855469 42.460938 C 156.625 42.460938 158.394531 42.460938 160.164062 42.460938 C 160.164062 28.308594 160.164062 14.152344 160.164062 0 C 158.394531 0 156.625 0 154.855469 0 C 154.855469 14.152344 154.855469 28.308594 154.855469 42.460938 Z M 154.855469 42.460938 "/></g></g></svg>