<svg xmlns="http://www.w3.org/2000/svg" width="980" height="1088"><path fill="#149242" d="M282 24c47.337-.017 94.673-.033 142.01-.042h2.123a1538185.31 1538185.31 0 0 1 68.086-.013h2.252c24.084-.005 48.168-.012 72.252-.021a248150.264 248150.264 0 0 1 84.742-.019h2.085c11.074-.001 22.148-.006 33.222-.012 11.135-.006 22.27-.008 33.406-.007 6.032.001 12.065 0 18.097-.005 5.523-.005 11.047-.005 16.57-.002 1.998 0 3.995 0 5.993-.004 2.718-.004 5.436-.002 8.154.002l2.342-.008c5.602.017 11.102.493 16.666 1.131v2l2.104.411c3.216.63 6.431 1.266 9.646 1.901l3.309.647C828.776 34.66 848.999 43.566 869 57l2.66 1.727C878.106 62.923 883.561 67.546 889 73c1.138 1.105 2.277 2.21 3.418 3.313 10.6 10.324 19.57 20.822 27.11 33.64 1.381 2.342 1.381 2.342 4.472 3.047l.273 2.55c.833 3.954 2.45 7.122 4.352 10.638C946.542 160.757 952.578 205.983 943 244l-.586 2.366c-3.26 12.72-8.137 24.624-13.506 36.583-1.03 2.327-1.977 4.682-2.908 7.051-1 2-1 2-3 5l-1 2-1.77 2.207c-2 2.504-3.852 5.07-5.679 7.702-6.812 9.782-14.602 18.319-23.127 26.63-2.539 2.493-4.93 5.037-7.222 7.76-5.176 5.936-10.812 11.422-16.395 16.97-2.064 2.05-4.124 4.104-6.183 6.158-5.112 5.099-10.23 10.192-15.347 15.286-4.335 4.315-8.668 8.632-12.998 12.952-2.018 2.012-4.039 4.02-6.06 6.028-7.059 6.967-7.059 6.967-13.719 14.307-4.885 5.744-10.349 10.958-15.693 16.269-2.064 2.05-4.124 4.104-6.183 6.158-5.112 5.099-10.23 10.192-15.347 15.286-4.335 4.315-8.668 8.632-12.998 12.952-2.018 2.012-4.039 4.02-6.06 6.028-7.056 6.963-7.056 6.963-13.712 14.3-4.915 5.78-10.415 11.024-15.792 16.367a4505.25 4505.25 0 0 0-6.218 6.194c-4.392 4.38-8.788 8.757-13.184 13.134a18811.776 18811.776 0 0 0-15.319 15.262c-2.036 2.03-4.075 4.057-6.115 6.083l-3.753 3.743-1.708 1.693A102.43 102.43 0 0 0 673 556a73.436 73.436 0 0 1-3.375 2.875c-3.991 3.397-7.487 7.135-11.024 10.989-6.504 7.025-13.187 13.843-19.979 20.59-1.934 1.92-3.864 3.844-5.793 5.768-4.086 4.075-8.176 8.146-12.266 12.216-4.774 4.75-9.546 9.5-14.313 14.256-1.887 1.881-3.778 3.759-5.668 5.636-6.696 6.621-6.696 6.621-13.012 13.6-4.97 5.83-10.52 11.128-15.949 16.524-2.097 2.084-4.19 4.17-6.283 6.259-5.195 5.182-10.397 10.359-15.597 15.536-4.406 4.386-8.81 8.773-13.21 13.164a5608.235 5608.235 0 0 1-6.16 6.128c-5.323 5.303-10.575 10.578-15.443 16.306-4.488 5.012-9.351 9.682-14.121 14.422-2.064 2.05-4.124 4.104-6.183 6.158-5.112 5.099-10.23 10.192-15.347 15.286-4.335 4.315-8.668 8.632-12.998 12.952-2.018 2.012-4.039 4.02-6.06 6.028-5.44 5.419-10.83 10.81-15.805 16.666-2.253 2.615-4.68 5.02-7.129 7.453l-1.517 1.513a2829.02 2829.02 0 0 1-4.705 4.675l-3.229 3.215c-2.609 2.598-5.22 5.192-7.834 7.785 1.774-1.1 3.544-2.205 5.313-3.313l2.988-1.863c2.222-1.502 3.867-2.906 5.699-4.824 3-2 3-2 6-3l2.5-2c2.5-2 2.5-2 5.5-3 1.832-.937 3.65-1.9 5.46-2.879 17.443-9.312 34.854-17.493 54.118-22.332L510 768l1-2c2.182-.211 4.365-.414 6.55-.59 4.56-.542 9.018-1.422 13.513-2.347l2.599-.516 2.436-.512 2.203-.457c1.918-.43 1.918-.43 2.699-2.578l2.492.035 3.383.028 3.305.035a95.726 95.726 0 0 0 8.447-.591c5.065-.52 10.076-.684 15.166-.71l2.73-.02c2.889-.018 5.776-.024 8.664-.027l2.98-.007c12.954-.012 25.487.366 38.274 2.6 4.396.759 8.646.698 13.094.514 2.719.158 4.132.784 6.465 2.143 3.193 1.732 6.279 2.71 9.797 3.621l3.406.897 3.547.92c14.471 3.755 14.471 3.755 21.25 6.562l2.32.948a715.633 715.633 0 0 1 7.68 3.24c1.366.583 1.366.583 2.759 1.18 8.246 3.564 16.266 7.502 24.241 11.632l2 1 2.25 1.875c2.8 2.164 5.551 3.632 8.75 5.125 2 1 2 1 3.219 2.273 2.523 2.446 5.404 4.352 8.281 6.352 23.3 16.454 45.083 36.994 61.5 60.375l2 2c2.005 2.005 2.766 3.487 4 6a1034.59 1034.59 0 0 0 3.125 4.875c3.916 6.546 3.916 6.546 2.875 11.125-3.347 6.258-8.476 11.568-13 17l1.703.559C817.757 914.028 827.37 918.51 837 923l2.115.984C855.839 931.853 871.813 941.488 887 952l2.832 1.828c8.827 5.81 8.827 5.81 10.168 11.172-.607 3.58-1.269 6.056-3.5 8.938C895 975 895 975 893 975l-1 2c-2.903 1.375-4.761 2-8 2l-1 2-7 1-1 2h-4l-1 3-6 1v2l-2.875.25c-5.015.69-9.51 2.753-14.125 4.75l3.996.078c24.552.69 46.866 6.79 66.004 22.922l2.395 1.918c5.232 4.392 9.444 9.17 13.48 14.644l1.37 1.858c4.84 6.779 9.017 13.025 7.755 21.58-2.535 3.22-4.113 4.704-8 6-1.967.098-3.938.136-5.908.141l-3.768.019-4.168.005a6835.57 6835.57 0 0 1-16.632.05c-4.41.01-8.819.026-13.228.041-8.727.029-17.454.052-26.181.073-7.216.017-14.431.037-21.647.058-27.974.08-55.948.15-83.922.214-8.173.018-16.345.038-24.518.057-109.073.263-218.146.459-377.604.075-8.506-.026-17.012-.05-25.518-.072l-2.545-.006-5.068-.013a32896.566 32896.566 0 0 1-50.054-.16l-2.209-.01c-4.994-.018-9.99-.033-14.984-.045-6.554-.016-13.108-.043-19.661-.076-2.348-.01-4.695-.018-7.043-.022-17.166-.03-34.294-.51-51.166-3.954-3.106-.535-6.033-.515-9.176-.375l-1-2a134.892 134.892 0 0 0-7.688-2.313c-7.914-2.223-15.609-4.818-23.312-7.687v-2l-2.586-.777c-10.904-3.905-20.388-11.151-29.414-18.223a11929.926 11929.926 0 0 1-7.063-5.375l-1.662-1.263c-2.59-1.989-5.032-3.987-7.275-6.362l-2.188-2.063C85 1010 85 1010 85 1008h-2c-1.621-1.898-1.621-1.898-3.438-4.375-2.13-2.899-3.533-4.606-6.562-6.625a110.566 110.566 0 0 1-3.5-5.438c-1.96-3.229-3.77-5.96-6.5-8.562-2-3-2-3-3-6a159.83 159.83 0 0 0-2.258-4.219c-9.175-16.855-18.418-35.377-19.433-54.883L38 916l-2-1 1-5-2-1 .063-3.188c.058-3.6.058-3.6-.559-6.23-.514-2.635-.633-5.025-.637-7.707l-.004-2.89.012-2.985-.012-2.984.004-2.891.004-2.617c.133-2.591.587-4.974 1.129-7.508.146-2.02.27-4.04.375-6.063.397-5.64 1.41-10.835 2.906-16.28.688-2.543 1.226-5.071 1.719-7.657 2.064-10.127 2.064-10.127 4-14l2-1 .395-2.023c.842-4.144 2.556-7.761 4.292-11.602l1.08-2.412c2.791-6.156 5.87-12.1 9.233-17.963l1-2 2-2.438c2.153-2.464 2.153-2.464 3-5.562h2l.875-1.75L71 777l.813-1.938c1.615-2.806 3.89-4.813 6.187-7.062 3.254-3.225 6.502-6.456 9.75-9.688l2.652-2.626 2.52-2.51 2.3-2.284c1.84-1.776 1.84-1.776 2.778-3.892h2v-2h2v-2h2v-2h2v-2h2v-2a96.276 96.276 0 0 1 3.342-3.404c1.97-1.897 3.88-3.848 5.795-5.803l4.55-4.606 2.338-2.388 2.237-2.256 2.03-2.062C130 715 130 715 132 715l.649-1.635c1.84-3.22 4.353-5.62 6.975-8.2l1.74-1.736c1.899-1.893 3.805-3.778 5.71-5.663l3.977-3.961c3.493-3.48 6.992-6.954 10.492-10.427 5.585-5.542 11.164-11.091 16.74-16.644 1.94-1.93 3.883-3.856 5.827-5.782l3.62-3.6 1.614-1.593a158.277 158.277 0 0 0 8.067-8.67c3.588-4.142 7.392-8.02 11.28-11.879l2.226-2.22a4787.09 4787.09 0 0 1 4.745-4.727c2.508-2.495 5.013-4.994 7.517-7.493a26508.25 26508.25 0 0 1 15.946-15.895c6.172-6.148 12.342-12.298 18.507-18.451 2.463-2.456 4.928-4.91 7.394-7.362l4.54-4.531 2.067-2.05c3.679-3.68 7.078-7.45 10.367-11.481a83.467 83.467 0 0 1 3.813-3.375 140.785 140.785 0 0 0 15.337-15.277c3.704-4.24 7.607-8.233 11.602-12.198l2.245-2.24c1.595-1.592 3.192-3.182 4.79-4.771 2.533-2.521 5.063-5.045 7.593-7.57 6.28-6.268 12.567-12.53 18.853-18.792 5.321-5.301 10.64-10.605 15.957-15.911 2.484-2.477 4.97-4.951 7.457-7.425l4.601-4.591 2.072-2.057a211.945 211.945 0 0 0 11.118-12.006c2.458-2.812 5.097-5.427 7.757-8.045l1.683-1.671a3089.13 3089.13 0 0 1 5.247-5.196 4106.59 4106.59 0 0 0 6.945-6.883l1.579-1.553c2.522-2.506 4.873-5.038 7.097-7.814L420 421h2v-2c1.462-1.443 1.462-1.443 3.488-3.121 4.447-3.784 8.582-7.805 12.703-11.938l2.27-2.266c1.572-1.571 3.142-3.144 4.712-4.717 2.383-2.389 4.772-4.772 7.161-7.155l4.607-4.612 2.135-2.128a233.766 233.766 0 0 0 11.31-12.226c2.257-2.568 4.64-4.958 7.075-7.36l1.442-1.431c1.489-1.477 2.98-2.95 4.472-4.421 1.99-1.963 3.976-3.93 5.96-5.898l2.643-2.607c2.06-1.953 2.06-1.953 3.022-4.12h2v-2h2l.836-1.672c.801-1.602 1.62-3.195 2.453-4.781 4.428-9.271 5.433-18.522 2.977-28.543-1.962-5.283-4.903-9.52-8.266-14.004v-2l-1.781-.848c-2.055-1.067-3.83-2.26-5.719-3.59-9.9-6.127-21.259-5.997-32.534-5.943a2614.16 2614.16 0 0 0-17.857-.011c-4.71.007-9.42-.004-14.13-.012-9.215-.013-18.43-.01-27.646-.002-7.494.007-14.988.008-22.482.005l-3.237-.002-6.51-.003c-20.335-.008-40.67.002-61.004.018-17.428.013-34.856.01-52.283-.003a48715.078 48715.078 0 0 0-67.267-.01l-3.224.001c-7.479.003-14.957-.002-22.436-.009-9.123-.008-18.246-.006-27.37.01-4.65.008-9.3.011-13.95.001-4.265-.009-8.53-.004-12.796.012-1.534.003-3.068.002-4.602-.006C81.877 281.33 81.877 281.33 66 289c-1.664.346-3.33.68-5 1-4.775 3.126-9.271 6.778-12.688 11.375-2.986 3.39-4.956 3.77-9.312 4.625-5.9-5.9-5.118-13.562-5.14-21.442.026-4.52.066-9.039.14-13.558.017-1.3.034-2.599.05-3.938.431-11.414 2.684-22.515 4.794-33.718.894-4.774 1.63-9.516 2.156-14.344h2v-10l2-1a203.126 203.126 0 0 0 3-8.625c3.063-9.122 6.698-17.9 10.623-26.682 1.655-3.707 3.255-7.322 4.525-11.181.97-2.861 2.527-4.608 4.516-6.844 1.447-1.806 2.454-3.617 3.523-5.668C81.6 129.69 97.547 112.377 113 97l1.73-1.8c1.386-1.438 2.827-2.82 4.27-4.2h2l-1-3 1.8-.324c2.513-.772 3.518-1.663 5.388-3.489 4.968-4.543 10.472-8.273 15.996-12.098l2.183-1.515 1.972-1.356c1.798-1.254 1.798-1.254 3.661-3.218 3-2 3-2 6-3l2-2 3-1 2-2 3-1c1.466-.72 2.92-1.465 4.367-2.223 19.018-9.833 37.956-17.027 58.72-22.24 1.976-.49 1.976-.49 3.913-1.537 2.125-.255 4.25-.504 6.38-.723 4.531-.479 9.043-1.096 13.558-1.715l2.86-.369 2.73-.377 2.46-.33c2.226-.353 2.226-.353 4.012-2.486 2.745-.145 5.385-.187 8.125-.125l2.285.027c1.864.024 3.727.06 5.59.098v-1Zm355 738 4 1Z"/><path fill="#D52F5E" d="m573.793 757.797 2.73-.02c2.889-.018 5.776-.024 8.664-.027l2.98-.007c12.954-.012 25.487.366 38.274 2.6 4.396.759 8.646.698 13.094.514 2.719.158 4.132.784 6.465 2.143 3.193 1.732 6.279 2.71 9.797 3.621l3.406.897 3.547.92c14.471 3.755 14.471 3.755 21.25 6.562l2.32.948a715.633 715.633 0 0 1 7.68 3.24l2.759 1.18c8.246 3.564 16.266 7.502 24.241 11.632l2 1 2.25 1.875c2.8 2.164 5.551 3.632 8.75 5.125 2 1 2 1 3.219 2.273 2.523 2.446 5.404 4.352 8.281 6.352 23.3 16.454 45.083 36.994 61.5 60.375l2 2c2.005 2.005 2.766 3.487 4 6a1034.59 1034.59 0 0 0 3.125 4.875c3.916 6.546 3.916 6.546 2.875 11.125-3.347 6.258-8.476 11.568-13 17l1.703.559C817.757 914.028 827.37 918.51 837 923l2.115.984C855.839 931.853 871.813 941.488 887 952l2.832 1.828c8.827 5.81 8.827 5.81 10.168 11.172-.607 3.58-1.269 6.056-3.5 8.938C895 975 895 975 893 975l-1 2c-2.903 1.375-4.761 2-8 2l-1 2-7 1-1 2h-4l-1 3-6 1v2l-2.875.25c-5.015.69-9.51 2.753-14.125 4.75l3.996.078c24.552.69 46.866 6.79 66.004 22.922l2.395 1.918c5.232 4.392 9.444 9.17 13.48 14.644l1.37 1.858c4.84 6.779 9.017 13.025 7.755 21.58-2.535 3.22-4.113 4.704-8 6-2.213.099-4.428.136-6.643.141l-2.066.01c-2.301.01-4.603.012-6.905.014-1.66.005-3.322.01-4.982.017-4.58.016-9.158.025-13.737.033-4.936.01-9.871.026-14.807.041-9.688.029-19.377.052-29.065.073-7.9.017-15.801.036-23.702.057l-3.41.009-6.86.018c-21.49.056-42.98.105-64.47.153-18.332.04-36.664.087-54.997.137a144704.1 144704.1 0 0 1-70.892.179l-3.418.008c-7.841.018-15.683.039-23.524.061-80.663.225-80.663.225-108.916-.209-2.08-.032-4.162-.06-6.242-.083-29.78-.364-60.604-4.911-85.364-22.659l-2.719-1.863c-6.864-4.81-13.464-10.083-19.281-16.137v-2l-3-1c-6.381-6.662-11.192-15.157-16-23l-2.05-3.344c-2.343-4.154-3.905-8.53-5.45-13.031l-.913-2.64C350.78 967.706 347.43 955.958 347 944l-.156-3.422c-.836-34.696 11.545-67.531 35.427-92.693A904.53 904.53 0 0 1 388 842l2.163-2.209c2.23-2.27 4.469-4.533 6.712-6.791l2.088-2.103a213.281 213.281 0 0 1 20.537-18.022l1.678-1.293c3.118-2.374 6.276-4.566 9.635-6.582l3.187-2v-2l6-2 2.5-2c2.5-2 2.5-2 5.5-3 1.832-.937 3.65-1.9 5.46-2.879 17.443-9.312 34.854-17.493 54.118-22.332L510 768l1-2c2.182-.211 4.365-.414 6.55-.59 4.56-.542 9.018-1.422 13.513-2.347l2.599-.516 2.436-.512 2.203-.457c1.918-.43 1.918-.43 2.699-2.578l2.492.035 3.383.028 3.305.035a95.726 95.726 0 0 0 8.447-.591c5.065-.52 10.076-.684 15.166-.71ZM637 762l4 1Z"/><path fill="#F06300" d="m268.057 24.758 2.593.012 2.989-.002 3.307.03 3.495.007c3.21.008 6.422.026 9.632.047 3.459.021 6.918.03 10.377.041 5.995.02 11.991.048 17.987.08 8.669.048 17.337.084 26.006.117 14.064.054 28.128.118 42.191.186 13.664.067 27.328.13 40.992.187l2.551.01 12.67.053c35.05.145 70.102.305 105.153.474.482 2.812.96 5.625 1.437 8.437l.409 2.374c1.2 7.117 2.243 14.25 2.331 21.48l.038 2.84.023 2.99.03 3.18c.308 41.704.308 41.704-3.674 59.942-.626 2.907-1.164 5.822-1.692 8.75-9.414 50.695-34.513 99.083-69.83 136.593-2.922 3.084-2.922 3.084-5.34 6.56C470 281 470 281 467.183 281.5h-3.506l-1.962.016c-2.184.013-4.368-.002-6.552-.017a1961.97 1961.97 0 0 1-17.755.006c-4.68-.011-9.358 0-14.037.01-8.115.013-16.23.012-24.344.001a13154.48 13154.48 0 0 0-35.246.012c-19.081.026-38.163.037-57.245.036h-17.351c-12.718-.002-25.436 0-38.155.002h-3.447c-18.995.005-37.99.022-56.984.045-11.712.014-23.424.017-35.136.006-8.036-.008-16.071-.004-24.107.007-4.632.006-9.263.007-13.895-.005-4.25-.011-8.499-.008-12.748.005-1.528.003-3.057 0-4.585-.008-18.271-.283-18.271-.283-34.127 7.384-1.664.346-3.33.68-5 1-4.775 3.126-9.271 6.778-12.688 11.375-2.986 3.39-4.956 3.77-9.312 4.625-5.9-5.9-5.118-13.562-5.14-21.442.026-4.52.066-9.039.14-13.558.017-1.3.034-2.599.05-3.938.431-11.414 2.684-22.515 4.794-33.718.894-4.774 1.63-9.516 2.156-14.344h2v-10l2-1a203.126 203.126 0 0 0 3-8.625c3.063-9.122 6.698-17.9 10.623-26.682 1.655-3.707 3.255-7.322 4.525-11.181.97-2.861 2.527-4.608 4.516-6.844 1.447-1.806 2.454-3.617 3.523-5.668C81.6 129.69 97.547 112.377 113 97l1.73-1.8c1.386-1.438 2.827-2.82 4.27-4.2h2l-1-3 1.8-.324c2.513-.772 3.518-1.663 5.387-3.489 4.97-4.543 10.473-8.273 15.997-12.098l2.183-1.515 1.972-1.356c1.798-1.254 1.798-1.254 3.661-3.218 3-2 3-2 6-3l2-2 3-1 2-2 3-1c1.466-.72 2.92-1.465 4.367-2.223 19.018-9.833 37.956-17.027 58.72-22.24 1.976-.49 1.976-.49 3.913-1.537 2.125-.255 4.25-.504 6.38-.723 4.531-.479 9.043-1.096 13.557-1.715l2.862-.369 2.728-.377 2.461-.33c2.665-.644 3.319-2.404 6.069-2.728Z"/><path fill="#0067D2" d="M282 24c47.337-.017 94.673-.033 142.01-.042h2.123a1538185.31 1538185.31 0 0 1 68.086-.013h2.252c24.084-.005 48.168-.012 72.252-.021a248150.264 248150.264 0 0 1 84.742-.019h2.085c11.074-.001 22.148-.006 33.222-.012 11.135-.006 22.27-.008 33.406-.007 6.032.001 12.065 0 18.097-.005 5.523-.005 11.047-.005 16.57-.002 1.998 0 3.995 0 5.993-.004 2.718-.004 5.436-.002 8.154.002l2.342-.008c5.602.017 11.102.493 16.666 1.131v2l2.104.411c3.216.63 6.431 1.266 9.646 1.901l3.309.647C828.776 34.66 848.999 43.566 869 57l2.66 1.727C878.106 62.923 883.561 67.546 889 73c1.138 1.105 2.277 2.21 3.418 3.313 10.6 10.324 19.57 20.822 27.11 33.64 1.381 2.342 1.381 2.342 4.472 3.047l.273 2.55c.833 3.954 2.45 7.122 4.352 10.638C946.542 160.757 952.578 205.983 943 244l-.586 2.366c-3.26 12.72-8.137 24.624-13.506 36.583-1.03 2.327-1.977 4.682-2.908 7.051-1 2-1 2-3 5l-1 2-1.77 2.207c-2 2.504-3.852 5.07-5.68 7.702-4.745 6.815-9.782 13.097-15.55 19.091l-2.61 2.73c-3.965 4.066-7.514 7.362-12.39 10.27a290.89 290.89 0 0 0-5.938 5.125c-9.263 7.986-19.374 14.093-30.125 19.875l-2.165 1.17c-3.575 1.876-6.709 3.323-10.772 3.83v2l-1.832.682c-6.413 2.465-12.316 5.445-18.293 8.818-9.102 5.057-18.323 9.808-27.667 14.402-4.382 2.16-8.717 4.35-12.97 6.758a82.062 82.062 0 0 1-9.236 4.472c-4.846 2.1-9.533 4.562-14.252 6.93l-3.503 1.754a917.914 917.914 0 0 0-20.06 10.372c-6.48 3.456-13.04 6.689-19.687 9.812-9.067 4.264-17.924 8.842-26.765 13.552-14.42 7.636-28.924 15.123-43.547 22.364-14.318 7.092-28.575 14.274-42.69 21.763a3192.27 3192.27 0 0 1-14.186 7.446l-2.695 1.414C569.464 505.8 561.235 509.902 553 514l-4.19 2.086-2.103 1.047c-19.748 9.794-19.748 9.794-39.294 19.982-6.196 3.32-12.481 6.455-18.78 9.578C471.326 555.28 454.05 563.907 437 573a5436.716 5436.716 0 0 1-10.25 5.438l-2.348 1.253-2.23 1.18-1.935 1.03c-1.81.889-3.657 1.7-5.514 2.486-3.92 1.663-7.684 3.58-11.461 5.543l-4.613 2.38-2.446 1.264c-17.116 8.85-34.315 17.527-51.575 26.093-8.024 3.989-16.009 8.032-23.925 12.231-11.776 6.245-23.722 12.143-35.66 18.07a1683.586 1683.586 0 0 0-43.912 22.632 589.606 589.606 0 0 1-25.631 12.9c-7.623 3.607-15.146 7.337-22.587 11.304-7.442 3.964-14.928 7.839-22.424 11.7l-4.266 2.199c-8.218 4.24-16.451 8.443-24.749 12.527-3.186 1.579-6.266 3.23-9.313 5.065L129 730l-2-1c13.332-9.548 13.332-9.548 19-13.5 3.812-2.659 7.597-5.354 11.375-8.063 8.345-5.978 16.763-11.851 25.18-17.728 2.529-1.768 5.055-3.54 7.582-5.31 4.124-2.888 8.27-5.744 12.425-8.587 5.679-3.892 11.32-7.832 16.938-11.812 6.933-4.912 13.918-9.743 20.926-14.547 6.704-4.597 13.341-9.282 19.949-14.015 12.24-8.765 24.6-17.36 36.984-25.918a7998.701 7998.701 0 0 0 41.739-29.086c3.317-2.325 6.637-4.645 9.96-6.961 8.135-5.675 16.234-11.387 24.255-17.223a479.716 479.716 0 0 1 18.506-12.8c4.455-2.94 8.768-6.036 13.064-9.204 4.032-2.905 8.134-5.7 12.242-8.496a1444.404 1444.404 0 0 0 22.848-15.898c4.66-3.306 9.344-6.579 14.027-9.852 9.597-6.71 19.192-13.422 28.75-20.188A1284.458 1284.458 0 0 1 499 468.5c8.394-5.748 16.7-11.618 25-17.5 8.956-6.347 17.932-12.66 26.99-18.862 4.78-3.28 9.528-6.602 14.26-9.95 12.73-9.007 25.48-17.98 38.375-26.75 7.029-4.783 13.943-9.704 20.82-14.704 8.172-5.932 16.502-11.625 24.857-17.296 8.935-6.067 17.806-12.18 26.479-18.619 4.698-3.476 9.521-6.727 14.407-9.936 2.74-1.835 5.405-3.742 8.062-5.695 4.401-3.235 8.867-6.356 13.375-9.438 5.66-3.87 11.282-7.785 16.875-11.75a1238.542 1238.542 0 0 1 16.5-11.5c5.694-3.9 11.359-7.837 17-11.813l2.066-1.453a266.561 266.561 0 0 0 12.172-9.121C778 273 778 273 781 273v-3l2.676-1.434C791.83 264.11 799.072 259.258 806 253l2.586-2.336c20.864-19.837 31.8-48.306 32.819-76.75.23-16.48-3.534-32.004-10.405-46.914l-1.438-3.203C818.18 99.67 796.654 80.884 772 71c-5.263-1.813-10.624-3.227-16.035-4.527-1.6-.385-3.192-.8-4.781-1.223-27.403-6.334-56.083 2.239-79.378 16.581-4.622 2.992-8.75 6.46-12.806 10.169l-2.578 2.332C640.484 109.463 628.736 131.273 625 153h-2l-.4 2.215c-.554 2.572-1.276 4.881-2.202 7.34-.32.854-.642 1.708-.973 2.587l-1.05 2.733-1.094 2.852c-2.804 7.214-5.832 14.243-9.255 21.19a806.355 806.355 0 0 0-2.209 4.522C599.097 210.294 591.832 223.743 584 237l-1.374 2.342c-15.695 26.661-34.41 52.236-55.29 75.076-1.9 2.101-3.77 4.222-5.629 6.36-3.727 4.266-7.537 8.448-11.394 12.597l-1.971 2.152-1.916 2.059-1.706 1.845c-1.8 1.641-3.5 2.591-5.72 3.569 1.08-2.16 2.165-4.315 3.29-6.453 4.427-9.271 5.432-18.522 2.976-28.543-1.962-5.283-4.903-9.52-8.266-14.004v-2l-1.781-.848c-2.055-1.067-3.83-2.26-5.719-3.59-5.115-3.265-10.642-4.278-16.5-5.562l-3-1c2.909-4.657 6.183-8.446 10-12.375 25.896-27.35 45.218-63.041 57-98.625l1.387-3.746c4.06-11.369 6.265-23.034 8.426-34.879l.463-2.54c.441-2.436.876-4.873 1.306-7.312l.39-2.195c1.536-8.877 2.193-17.544 2.231-26.555l.017-3.226c.01-2.25.016-4.501.02-6.752.01-3.362.04-6.723.072-10.084.066-13.74-.867-26.993-3.04-40.564C548 30 548 30 548 26l-266-1v-1Z"/><path fill="#02AAF2" d="m762 67 3.285.875c26.894 8.108 49.796 27.538 63.501 51.84 13.439 25.294 17.453 54.689 9.612 82.414-1.505 4.753-3.37 9.32-5.398 13.871l-.895 2.035C822.033 240.538 805.041 258.735 783 270h-2v3l-2.973 1.621c-4.385 2.508-8.402 5.447-12.465 8.442-5.76 4.203-11.546 8.354-17.437 12.375-13.917 9.505-27.677 19.236-41.441 28.96a1666.069 1666.069 0 0 1-19.21 13.393 1723.592 1723.592 0 0 0-21.334 14.872 1640.342 1640.342 0 0 1-15.581 10.872C639.826 370.957 629.156 378.47 618.5 386c-12.822 9.061-25.672 18.081-38.626 26.953-5.616 3.853-11.179 7.777-16.737 11.712a1639.26 1639.26 0 0 1-15.578 10.87C536.826 442.957 526.156 450.47 515.5 458c-12.712 8.982-25.44 17.936-38.313 26.688a549.888 549.888 0 0 0-19.294 13.711c-3.561 2.651-7.187 5.157-10.893 7.601a1352.833 1352.833 0 0 0-7.313 5l-2.09 1.437c-5.847 4.027-11.65 8.114-17.443 12.217a1258.146 1258.146 0 0 1-12.841 8.971 843.506 843.506 0 0 0-13.125 9.25 757.12 757.12 0 0 1-14.938 10.438 695.963 695.963 0 0 0-17.063 12.062c-6.894 5.014-13.877 9.877-20.927 14.67-6.775 4.61-13.493 9.299-20.2 14.006a2200.35 2200.35 0 0 1-13.56 9.449c-12.64 8.734-25.206 17.575-37.753 26.441a3027.548 3027.548 0 0 1-13.517 9.5 1965.44 1965.44 0 0 0-4.492 3.149 1608.862 1608.862 0 0 1-15.3 10.597c-6.4 4.389-12.75 8.845-19.08 13.331A1126.21 1126.21 0 0 1 203 676.5c-7.666 5.25-15.26 10.6-22.841 15.97-3.635 2.575-7.271 5.147-10.909 7.717l-2.15 1.52a1449.76 1449.76 0 0 1-12.787 8.918c-5.138 3.545-10.225 7.154-15.299 10.788-6.191 4.434-12.398 8.842-18.729 13.075C109.387 741.811 99.21 749.605 90 759l-2-1 1.934-1.898 2.504-2.477 2.496-2.46c2.1-1.988 2.1-1.988 3.066-4.165h2v-2h2v-2h2v-2h2v-2h2v-2a96.276 96.276 0 0 1 3.342-3.404c1.97-1.897 3.88-3.848 5.795-5.803l4.55-4.606 2.338-2.388 2.237-2.256 2.03-2.062C130 715 130 715 132 715l.649-1.635c1.84-3.22 4.353-5.62 6.975-8.2l1.74-1.736c1.899-1.893 3.805-3.778 5.71-5.663l3.977-3.961c3.493-3.48 6.992-6.954 10.492-10.427 5.585-5.542 11.164-11.091 16.74-16.644 1.94-1.93 3.883-3.856 5.827-5.782l3.62-3.6 1.614-1.593a158.277 158.277 0 0 0 8.067-8.67c3.588-4.142 7.392-8.02 11.28-11.879l2.226-2.22a4787.09 4787.09 0 0 1 4.745-4.727c2.508-2.495 5.013-4.994 7.517-7.493a26508.25 26508.25 0 0 1 15.946-15.895c6.172-6.148 12.342-12.298 18.507-18.451 2.463-2.456 4.928-4.91 7.394-7.362l4.54-4.531 2.067-2.05c3.679-3.68 7.078-7.45 10.367-11.481a83.467 83.467 0 0 1 3.813-3.375 140.785 140.785 0 0 0 15.337-15.277c3.704-4.24 7.607-8.233 11.602-12.198l2.245-2.24c1.595-1.592 3.192-3.182 4.79-4.771 2.533-2.521 5.063-5.045 7.593-7.57 6.28-6.268 12.567-12.53 18.853-18.792 5.321-5.301 10.64-10.605 15.957-15.911 2.484-2.477 4.97-4.951 7.457-7.425l4.601-4.591 2.072-2.057a211.945 211.945 0 0 0 11.118-12.006c2.458-2.812 5.097-5.427 7.757-8.045l1.683-1.671a3089.13 3089.13 0 0 1 5.247-5.196 4106.59 4106.59 0 0 0 6.945-6.883l1.579-1.553c2.522-2.506 4.873-5.038 7.097-7.814L420 421h2v-2c1.462-1.443 1.462-1.443 3.488-3.121 4.447-3.784 8.582-7.805 12.703-11.938l2.27-2.266c1.572-1.571 3.142-3.144 4.712-4.717 2.383-2.389 4.772-4.772 7.161-7.155l4.607-4.612 2.135-2.128a233.766 233.766 0 0 0 11.31-12.226c2.257-2.568 4.64-4.958 7.075-7.36l1.442-1.431c1.489-1.477 2.98-2.95 4.472-4.421 1.99-1.963 3.976-3.93 5.96-5.898l2.643-2.607c2.06-1.953 2.06-1.953 3.022-4.12h2v-2l2.227-.742c3.09-1.402 4.798-2.949 7.148-5.383l2.383-2.465c2.456-2.64 4.835-5.33 7.18-8.07a206.598 206.598 0 0 1 5-5.461c6.97-7.362 13.442-14.907 19.59-22.966a522.262 522.262 0 0 1 4.777-6.093c24.985-31.584 45.69-65.918 62.587-102.47a215.574 215.574 0 0 1 3.221-6.502c1.924-3.812 3.44-7.71 4.887-11.723.512-1.394 1.025-2.787 1.54-4.18l.746-2.03c1.492-4.003 3.098-7.96 4.714-11.915h2l.125-3.5c2.686-23.477 19.503-46.424 36.875-61.5 28.875-22.811 64.427-30.687 100-21Z"/><path fill="#3FB466" d="m886 336 2 1c-6.761 7.758-13.923 15.046-21.22 22.295-2.021 2.008-4.04 4.02-6.057 6.033-4.28 4.268-8.563 8.533-12.848 12.797-4.978 4.954-9.954 9.91-14.926 14.87-1.976 1.97-3.955 3.936-5.934 5.902-6.944 6.858-6.944 6.858-13.497 14.085-4.893 5.749-10.36 10.97-15.711 16.287-2.064 2.05-4.124 4.104-6.183 6.158-5.112 5.099-10.23 10.192-15.347 15.286-4.335 4.315-8.668 8.632-12.998 12.952-2.018 2.012-4.039 4.02-6.06 6.028-7.056 6.963-7.056 6.963-13.712 14.3-4.915 5.78-10.415 11.024-15.792 16.367a4505.25 4505.25 0 0 0-6.218 6.194c-4.392 4.38-8.788 8.757-13.184 13.134a18811.776 18811.776 0 0 0-15.319 15.262c-2.036 2.03-4.075 4.057-6.115 6.083l-3.753 3.743-1.708 1.693A102.43 102.43 0 0 0 673 556a73.436 73.436 0 0 1-3.375 2.875c-3.991 3.397-7.487 7.135-11.024 10.989-6.504 7.025-13.187 13.843-19.979 20.59-1.934 1.92-3.864 3.844-5.793 5.768-4.086 4.075-8.176 8.146-12.266 12.216-4.774 4.75-9.546 9.5-14.313 14.256-1.887 1.881-3.778 3.759-5.668 5.636-6.696 6.621-6.696 6.621-13.012 13.6-4.97 5.83-10.52 11.128-15.949 16.524-2.097 2.084-4.19 4.17-6.283 6.259-5.195 5.182-10.397 10.359-15.597 15.536-4.406 4.386-8.81 8.773-13.21 13.164a5608.235 5608.235 0 0 1-6.16 6.128c-5.323 5.303-10.575 10.578-15.443 16.306-4.488 5.012-9.351 9.682-14.121 14.422-2.064 2.05-4.124 4.104-6.183 6.158-5.112 5.099-10.23 10.192-15.347 15.286-4.335 4.315-8.668 8.632-12.998 12.952-2.018 2.012-4.039 4.02-6.06 6.028-5.388 5.367-10.72 10.709-15.648 16.507-3.112 3.566-6.499 6.87-9.848 10.21l-2.334 2.337a4556.473 4556.473 0 0 1-4.858 4.853 4368.767 4368.767 0 0 0-7.373 7.379l-4.748 4.744-2.194 2.2a237.327 237.327 0 0 1-12.447 11.54c-28.448 24.728-49.965 56.34-52.68 94.94-.91 26.318 3.353 53.138 17.911 75.597l1.691 2.746c5.405 8.717 11.226 17.815 19.622 23.942L389 1029v2l1.777.832c2.145 1.127 3.887 2.359 5.786 3.855 22.435 17.023 46.76 24.492 74.437 27.313v1c-19.212.07-38.424.123-57.636.155-8.923.016-17.846.037-26.768.071-7.787.03-15.573.05-23.36.056-4.114.004-8.228.013-12.342.035-33.546.173-33.546.173-49.894-3.317l-2.265-.482c-15.498-3.36-28.937-9.885-42.735-17.518l-3.004-1.648L251 1040v-2l-4-1v-2c-.547-.235-1.093-.47-1.656-.71-20.646-11.356-35.032-39.573-41.969-60.977A291.051 291.051 0 0 1 202 968l-.508-1.858c-8.726-32.329-2.794-65.96 13.61-94.784 9.746-16.49 22.691-29.647 38.04-40.971 3.642-2.719 7.213-5.529 10.796-8.324l2.338-1.82c5.147-4.007 10.28-8.032 15.404-12.066 8.52-6.702 17.091-13.339 25.652-19.989a5494.17 5494.17 0 0 0 23.48-18.313l1.687-1.325a323.041 323.041 0 0 0 7.263-5.855C342 761 342 761 344 761v-2c1.773-1.453 1.773-1.453 4.375-3.25 5.253-3.725 10.362-7.599 15.438-11.563l2.33-1.818c2.287-1.788 4.572-3.578 6.857-5.369l2.098-1.643c7.392-5.756 7.392-5.756 14.664-11.662C392 722 392 722 394 722v-2c1.914-1.559 1.914-1.559 4.625-3.438a305.012 305.012 0 0 0 12.938-9.687l3.562-2.816 1.883-1.49c3.672-2.893 7.363-5.762 11.055-8.631l2.325-1.809a2729.32 2729.32 0 0 1 13.362-10.317c4.92-3.777 9.805-7.595 14.678-11.433 4.76-3.747 9.538-7.473 14.322-11.192l2.287-1.777 9.295-7.222c7.65-5.943 15.3-11.889 22.918-17.875l1.678-1.317c3.004-2.36 5.996-4.733 8.978-7.121l1.948-1.552a718.84 718.84 0 0 0 3.706-2.972C527.775 616 527.775 616 530 616v-2c1.914-1.559 1.914-1.559 4.625-3.438a304.992 304.992 0 0 0 12.938-9.687l3.582-2.832 1.885-1.49c3.56-2.806 7.14-5.585 10.72-8.365.757-.59 1.515-1.178 2.295-1.784l4.64-3.606c3.773-2.931 7.544-5.865 11.315-8.798a379393.077 379393.077 0 0 1 6.75-5.25l27.001-21 4.49-3.493c3.8-2.955 7.599-5.91 11.4-8.862a4315.947 4315.947 0 0 0 22.383-17.493c3.806-2.994 7.634-5.956 11.476-8.902 6.272-4.809 12.487-9.687 18.694-14.578 1.874-1.476 3.75-2.95 5.626-4.422l1.899-1.49 3.576-2.807c2.52-1.979 5.021-3.967 7.482-6.02C705 478 705 478 707 478v-2c1.773-1.453 1.773-1.453 4.375-3.25 5.168-3.666 10.196-7.473 15.188-11.375l2.327-1.817 4.747-3.711c3.782-2.956 7.573-5.901 11.363-8.847l4.484-3.488c3.052-2.374 6.104-4.746 9.157-7.117A4105.64 4105.64 0 0 0 779 420.5c9.895-7.789 19.849-15.502 29.797-23.223l4.703-3.652 2.276-1.765a576.514 576.514 0 0 0 14.474-11.602C832 379 832 379 834 379v-2c1.46-1.29 1.46-1.29 3.375-2.625l1.898-1.352C841 372 841 372 843 372v-2a97.458 97.458 0 0 1 5.188-3.813c3.02-2.09 5.708-4.082 8.3-6.69 2.66-2.644 5.381-4.564 8.512-6.622 7.41-4.972 14.678-10.553 21-16.875Z"/><path fill="#FBC700" d="m266 25 282 1c4.082 24.492 4.082 24.492 4.177 32.29l.038 2.841.023 2.99.03 3.18c.193 26.139-1.575 49.83-6.913 75.406l-.69 3.314L543 154l-2.516.002a153177.615 153177.615 0 0 0-165.575.206l-3.573.005c-19.062.031-38.125.048-57.188.06-19.576.013-39.153.04-58.73.082-12.068.025-24.137.038-36.205.036-8.29 0-16.578.015-24.866.041-4.774.015-9.548.023-14.322.014-29.947-.107-29.947-.107-59.025 6.554 2.724-3.223 6.276-4.871 9.938-6.813C145.267 146.355 158.63 136.644 171 126c1.127-.944 2.254-1.886 3.383-2.828C184.72 114.496 194.268 105.313 203 95c.808-.92 1.616-1.838 2.45-2.785 10.15-11.62 18.84-24.132 26.8-37.34l1.527-2.533c2.306-3.89 4.483-7.777 6.403-11.873 4.619-9.81 4.619-9.81 8.18-11.762 2.6-.537 4.988-.655 7.64-.707 1.881-.342 3.757-.716 5.625-1.125l2.54-.508L266 26v-1Z"/><path fill="#FBC701" d="m762 67 3.285.875c26.894 8.108 49.796 27.538 63.501 51.84 13.439 25.294 17.453 54.689 9.612 82.414-1.505 4.753-3.37 9.32-5.398 13.871l-.895 2.035C823.115 238.122 808.851 254.53 790 266l-1.877 1.16c-24.514 14.87-54.903 18.88-82.732 12.215-2.505-.702-4.939-1.509-7.391-2.375l-3.012-1.023c-12.153-4.37-23.152-10.58-32.988-18.977l-2.418-1.98c-16.23-13.815-27.26-33.467-33.332-53.708l-.64-2.124c-7.75-27.03-1.996-56.492 11.155-80.748 13.99-24.66 37.38-43.115 64.446-51.409C721.727 61.448 741.47 61.41 762 67ZM806.25 910.625 810 912c1.843.595 3.687 1.189 5.531 1.781 25.018 8.336 47.92 22.465 69.727 37.06a343.407 343.407 0 0 0 4.898 3.182c8.498 5.592 8.498 5.592 9.844 10.977-.607 3.58-1.269 6.056-3.5 8.938C895 975 895 975 893 975l-1 2c-2.903 1.375-4.761 2-8 2l-1 2-7 1-1 2h-4l-1 3-6 1v2l-2.875.25c-5.015.69-9.51 2.753-14.125 4.75l3.996.078c24.552.69 46.866 6.79 66.004 22.922l2.395 1.918c5.232 4.392 9.444 9.17 13.48 14.644l1.37 1.858c4.84 6.779 9.017 13.025 7.755 21.58-2.535 3.22-4.113 4.704-8 6-2.224.099-4.45.136-6.676.141l-2.077.01c-2.314.01-4.628.012-6.942.014a8786.236 8786.236 0 0 1-18.814.05c-4.96.01-9.92.026-14.88.041-9.732.029-19.465.052-29.198.073-7.929.017-15.858.036-23.787.057l-3.42.009-6.88.018c-21.547.056-43.094.105-64.64.153-18.412.04-36.824.087-55.235.137a149506.44 149506.44 0 0 1-71.126.179l-3.423.008c-7.883.018-15.766.039-23.649.061-9.662.027-19.325.05-28.987.068-4.912.01-9.825.02-14.737.036-25.527.081-51.014-.28-76.529-1.055v-1l2.908-.228C562.336 1056.75 636.621 1040.106 702 998l2.618-1.682C724.432 983.513 743.384 969.71 761 954l2.746-2.41c6.543-5.857 12.798-12.008 19.03-18.191 1.434-1.422 2.87-2.839 4.308-4.256 5.175-5.169 9.886-10.41 14.227-16.303C803 911 803 911 806.25 910.625Z"/><path fill="#F06200" d="M914.762 1016.113 917 1018l2.395 1.918c5.232 4.392 9.444 9.17 13.48 14.644l1.37 1.858c4.84 6.779 9.017 13.025 7.755 21.58-2.535 3.22-4.113 4.704-8 6-2.224.099-4.45.136-6.676.141l-2.077.01c-2.314.01-4.628.012-6.942.014a8786.236 8786.236 0 0 1-18.814.05c-4.96.01-9.92.026-14.88.041-9.732.029-19.465.052-29.198.073-7.929.017-15.858.036-23.787.057l-3.42.009-6.88.018c-21.547.056-43.094.105-64.64.153-18.412.04-36.824.087-55.235.137a149506.44 149506.44 0 0 1-71.126.179l-3.423.008c-7.883.018-15.766.039-23.649.061-9.662.027-19.325.05-28.987.068-4.912.01-9.825.02-14.737.036-25.527.081-51.014-.28-76.529-1.055v-1c6.391-.832 12.507-1.041 18.941-.918 14.973.13 29.846-1.08 44.762-2.225 2.973-.226 5.948-.44 8.922-.655 17.195-1.247 34.295-2.81 51.375-5.202l2.676-.37c5.967-.825 11.928-1.687 17.886-2.568l2.66-.39c24.916-3.47 24.916-3.47 49.466-8.828 4.746-1.21 9.526-2.242 14.312-3.282l3.038-.662c4.628-1 9.255-1.972 13.911-2.83 13.46-2.49 26.46-6.204 39.586-10.066 3.21-.93 6.426-1.821 9.653-2.691 20.122-5.434 39.813-12.115 59.484-18.985l3.6-1.256c2.213-.776 4.425-1.556 6.634-2.343 28.288-9.958 61.833-2.467 84.856 16.384Z"/><path fill="#D52F5D" d="M246 30c-1.496 5.083-3.68 9.464-6.25 14.063l-1.31 2.346c-10.67 18.753-23.2 36.181-37.948 51.915a218.853 218.853 0 0 0-6.117 6.864c-6.277 7.2-13.063 13.56-20.527 19.515a181.683 181.683 0 0 0-5.477 4.594c-16.094 14.01-34.72 25.038-53.843 34.374-34.956 17.095-59.102 42.335-71.989 79.356C39.891 251.163 38.407 259.576 37 268l-.602 3.574L36 274l-2-1c.197-13.524 2.325-26.454 4.844-39.727.9-4.75 1.634-9.467 2.156-14.273h2v-10l2-1a203.126 203.126 0 0 0 3-8.625c3.063-9.122 6.698-17.9 10.623-26.682 1.655-3.707 3.255-7.322 4.525-11.181.97-2.861 2.527-4.608 4.516-6.844 1.447-1.806 2.454-3.617 3.523-5.668C81.6 129.69 97.547 112.377 113 97l1.73-1.8c1.386-1.438 2.827-2.82 4.27-4.2h2l-1-3 1.8-.324c2.513-.772 3.518-1.663 5.388-3.489 4.968-4.543 10.472-8.273 15.996-12.098l2.183-1.515 1.972-1.356c1.798-1.254 1.798-1.254 3.661-3.218 3-2 3-2 6-3l2-2 3-1 2-2 3-1c1.466-.72 2.92-1.465 4.367-2.223 19.018-9.833 37.956-17.027 58.72-22.24 1.976-.49 1.976-.49 3.913-1.537a90.524 90.524 0 0 1 4.438-.563l2.37-.253C243 30 243 30 246 30Z"/><path fill="#1A1A19" d="M723.129 123.527c7.92 6.387 12.247 14.769 14.871 24.473l.559 2.043c2.21 9.8-.886 21.445-6.059 29.836-7.126 10.077-15.41 16.788-27.59 19.648-12.628 2.051-24.234.02-34.847-7.277-8.438-6.637-15.508-16.4-17.063-27.25-.876-13.114.154-24.525 9.031-34.906 17.223-18.317 40.427-21.397 61.098-6.567Z"/><path fill="#FAB91A" d="m558 1056-6 2 5 1v1c-5.725.434-11.45.86-17.175 1.282-1.942.143-3.883.289-5.825.436-11.022.836-21.939 1.536-33 1.282v-1a3921.463 3921.463 0 0 0 15.411-1.544c1.74-.176 3.481-.35 5.222-.52 9.95-.979 19.65-2.195 29.396-4.454 2.799-.454 4.344-.44 6.971.518Z"/><path fill="#E85A11" d="M510.063 1061.938A4927.453 4927.453 0 0 1 527 1062c-1.578 1.882-2.45 2.906-4.918 3.322-.722-.025-1.444-.05-2.187-.074l-2.487-.062-2.67-.113-2.746-.08c-2.894-.088-5.787-.197-8.68-.306-1.962-.064-3.924-.126-5.885-.186-4.81-.151-9.62-.322-14.428-.502v-1c9-1.325 17.989-1.11 27.063-1.063Z"/><path fill="#EAC71E" d="M664 88c-1.414 3.224-3.11 5.336-5.625 7.785l-2.14 2.108-2.235 2.17c-1.46 1.426-2.919 2.854-4.375 4.285l-1.96 1.906c-1.857 1.847-1.857 1.847-3.665 4.746l-2-1c17.234-22 17.234-22 22-22Z"/><path fill="#944D45" d="M566 756h42v1h-42v-1Z"/><path fill="#0D9CC7" d="M102 743h2c-.368 4.551-3.681 6.9-6.875 9.75l-1.645 1.535C91.385 758 91.385 758 88 758l1.934-1.898 2.504-2.477 2.496-2.46c2.1-1.988 2.1-1.988 3.066-4.165h2v-2h2v-2Z"/><path fill="#FAC01E" d="m138 150 2 1-6 4 1 2c-1.583.48-3.166.96-4.75 1.438l-2.672.808A140.549 140.549 0 0 1 121 161c2.785-3.247 6.395-5.16 10.063-7.25l1.931-1.14c1.633-.936 3.317-1.781 5.006-2.61Z"/><path fill="#14A5EA" d="M623 153h1v8l-2 1c-1.131 2.34-1.131 2.34-2.125 5.063l-1.07 2.785L618 172c-1.465-4.504.136-7.58 1.938-11.75l.88-2.113A582.637 582.637 0 0 1 623 153Z"/><path fill="#33A179" d="m886 336 2 1-9 10-2-1c1.382-3.21 2.924-5.05 5.625-7.25l1.914-1.578L886 336Z"/><path fill="#E55D06" d="M527 1062c-1.02 1.52-1.02 1.52-3 3a59.026 59.026 0 0 1-7.688-.313l-2.126-.185c-1.73-.153-3.458-.326-5.186-.502v-1c5.967-1.326 11.926-1.088 18-1Z"/><path fill="#26AACB" d="M781 271v2c-4.09 3.167-8.913 4.454-14 5-2.277-.453-2.277-.453-4-1l2.484-.805 3.266-1.07 3.234-1.055c2.937-.973 2.937-.973 5.282-2.203C779 271 779 271 781 271Z"/><path fill="#925540" d="m860.188 993.375 2.271.172c1.848.141 3.695.296 5.541.453v1h-19c3.868-2.579 6.766-2.011 11.188-1.625Z"/><path fill="#844E44" d="M608 757c5.786-.105 11.293.007 17 1v1l-17-1v-1Z"/><path fill="#445C53" d="M505 311h1v15h-1v-15Z"/><path fill="#45635E" d="M196 1064h12c-4.988 2.494-6.67 1.888-12 1v-1Z"/><path fill="#75534B" d="M555 757h9v1h-9v-1Z"/><path fill="#456563" d="M187 1063h7v1h-7v-1Z"/><path fill="#6E5751" d="M547 758h7v1h-7v-1Z"/><path fill="#456563" d="M790 26h7v1h-7v-1Z"/><path fill="#5A5E5A" d="M257 26h7v1h-7v-1Z"/><path fill="#456460" d="M181 1062h6v1h-6v-1Z"/><path fill="#5B4F41" d="M868 995h6v1h-6v-1Z"/><path fill="#456460" d="M820 887h1v6h-1v-6Z"/><path fill="#75534B" d="M631 760h6v1h-6v-1Z"/><path fill="#8D514B" d="M625 759h6v1h-6v-1Z"/><path fill="#445E56" d="M193 649v3l-2 1 2-4ZM56 174l1 3-2 2 1-5Z"/><path fill="#5C554B" d="M250 27h6v1h-6v-1Z"/><path fill="#61574F" d="M530 761h5v1h-5v-1Z"/><path fill="#7F554F" d="M535 760h5v1h-5v-1Z"/><path fill="#445A4F" d="M802 28h5v1h-5v-1Z"/><path fill="#466868" d="M797 27h5v1h-5v-1Z"/><path fill="#456765" d="m177 1061 4 1Z"/><path fill="#695A56" d="m874 996 4 1Z"/><path fill="#435546" d="m654 765 4 1Z"/><path fill="#445E56" d="m650 764 4 1Z"/><path fill="#695A56" d="m646 763 4 1ZM526 762l4 1Z"/><path fill="#685146" d="M88 122v3Z"/><path fill="#435546" d="M92 117v3Z"/><path fill="#445E56" d="m807 29 4 1ZM245 28l4 1Z"/><path fill="#A44337" d="m934 1064 3 1Z"/><path fill="#456460" d="m173 1060 3 1Z"/><path fill="#424C37" d="m165 1058 3 1Z"/><path fill="#456460" d="m888 1000 3 1Z"/><path fill="#43584B" d="m885 999 3 1ZM882 998l3 1Z"/><path fill="#456460" d="m879 997 3 1ZM854 992l3 1Z"/><path fill="#424C37" d="m658 766 3 1Z"/><path fill="#43584B" d="m514 765 3 1Z"/><path fill="#456460" d="m518 764 3 1Z"/><path fill="#424C37" d="m467 764 2 1-2 1v-2Z"/><path fill="#75534B" d="m522 763 3 1Z"/><path fill="#424C37" d="m607 622 2 1-2 1v-2ZM747 480l2 1-2 1v-2ZM887 338l2 1-2 1v-2ZM891 334l2 1-2 1v-2ZM893 332l2 1-2 1v-2ZM811 30l3 1Z"/><path fill="#43584B" d="m240 29 3 1Z"/><path fill="#424C37" d="m932 1065 2 1ZM938 1062l2 1ZM127 1043l2 1ZM125 1042l2 1ZM120 1039l2 1ZM117 1037l2 1Z"/><path fill="#445E56" d="m114 1035 2 1ZM111 1033l2 1Z"/><path fill="#424C37" d="m107 1030 2 1ZM102 1026l2 1Z"/><path fill="#445E56" d="m906 1009 2 1ZM901 1006l2 1Z"/><path fill="#477075" d="m899 1005 2 1ZM897 1004l2 1ZM895 1003l2 1Z"/><path fill="#D63F37" d="m893 1002 2 1Z"/><path fill="#445E56" d="m891 1001 2 1Z"/><path fill="#8C4537" d="m857 991 2 1Z"/><path fill="#477075" d="m859 990 2 1Z"/><path fill="#424C37" d="m864 988 2 1ZM866 987l2 1Z"/><path fill="#445E56" d="m868 939 2 1Z"/><path fill="#8C4537" d="m865 937 2 1Z"/><path fill="#477075" d="m863 936 2 1Z"/><path fill="#8C4537" d="m860 934 2 1Z"/><path fill="#8E5756" d="m858 933 2 1Z"/><path fill="#445E56" d="m856 932 2 1Z"/><path fill="#8C4537" d="m853 930 2 1Z"/><path fill="#445E56" d="m851 929 2 1Z"/><path fill="#477075" d="m849 928 2 1Z"/><path fill="#424C37" d="m840 923 2 1Z"/><path fill="#445E56" d="m731 798 2 1Z"/><path fill="#8C4537" d="m440 797 2 1Z"/><path fill="#445E56" d="m728 796 2 1Z"/><path fill="#8C4537" d="m443 795 2 1ZM725 794l2 1ZM723 793l2 1ZM448 792l2 1Z"/><path fill="#445E56" d="m450 791 2 1Z"/><path fill="#8C4537" d="m718 790 2 1Z"/><path fill="#477075" d="m716 789 2 1ZM714 788l2 1Z"/><path fill="#445E56" d="m455 788 2 1Z"/><path fill="#424C37" d="m457 787 2 1ZM459 786l2 1ZM461 785l2 1Z"/><path fill="#445E56" d="m707 784 2 1ZM705 783l2 1Z"/><path fill="#424C37" d="m703 782 2 1ZM467 782l2 1ZM665 768l2 1ZM662 767l2 1ZM508 767l2 1ZM44 305l2 1Z"/><path fill="#8C4537" d="m58 292 2 1Z"/><path fill="#445E56" d="m61 290 2 1Z"/><path fill="#424C37" d="m69 286 2 1ZM71 285l2 1Z"/><path fill="#8C4537" d="m157 61 2 1ZM162 58l2 1Z"/><path fill="#445E56" d="m866 54 2 1ZM169 54l2 1ZM171 53l2 1ZM863 52l2 1ZM173 52l2 1Z"/><path fill="#424C37" d="m175 51 2 1Z"/><path fill="#445E56" d="m860 50 2 1ZM177 50l2 1Z"/><path fill="#424C37" d="m179 49 2 1ZM181 48l2 1Z"/><path fill="#445E56" d="m855 47 2 1Z"/><path fill="#424C37" d="m183 47 2 1ZM853 46l2 1ZM185 46l2 1ZM815 31l2 1ZM236 30l2 1Z"/></svg>